<?xml version="1.0" encoding="UTF-8"?>
<!DOCTYPE svg PUBLIC "-//W3C//DTD SVG 1.1//EN" "http://www.w3.org/Graphics/SVG/1.1/DTD/svg11.dtd">
<svg xmlns="http://www.w3.org/2000/svg" version="1.1" width="365px" height="850px" style="shape-rendering:geometricPrecision; text-rendering:geometricPrecision; image-rendering:optimizeQuality; fill-rule:evenodd; clip-rule:evenodd" xmlns:xlink="http://www.w3.org/1999/xlink">
<g><path style="opacity:1" fill="#000000" d="M -0.5,-0.5 C 121.167,-0.5 242.833,-0.5 364.5,-0.5C 364.5,282.833 364.5,566.167 364.5,849.5C 242.833,849.5 121.167,849.5 -0.5,849.5C -0.5,566.167 -0.5,282.833 -0.5,-0.5 Z"/></g>
<g><path style="opacity:1" fill="#232323" d="M 0.5,0.5 C 121.5,0.5 242.5,0.5 363.5,0.5C 363.5,283.167 363.5,565.833 363.5,848.5C 242.5,848.5 121.5,848.5 0.5,848.5C 0.5,565.833 0.5,283.167 0.5,0.5 Z"/></g>
<g><path style="opacity:1" fill="#000000" d="M 300.5,830.5 C 300.833,757.998 300.499,685.665 299.5,613.5C 298.782,604.518 298.448,595.518 298.5,586.5C 299.328,592.319 299.828,598.319 300,604.5C 300.167,508.833 300.333,413.167 300.5,317.5C 300.5,221.498 299.833,125.831 298.5,30.5C 300.334,26.4865 301.001,22.1532 300.5,17.5C 298.194,17.9926 295.861,18.3259 293.5,18.5C 199.335,17.5006 105.001,17.1673 10.5,17.5C 10.5,288.5 10.5,559.5 10.5,830.5C 59.8345,830.667 109.168,830.5 158.5,830C 159.791,823.728 161.124,817.561 162.5,811.5C 162.328,812.492 162.662,813.158 163.5,813.5C 162.628,818.526 161.628,823.526 160.5,828.5C 161.325,829.386 162.325,829.719 163.5,829.5C 162.391,830.29 161.058,830.79 159.5,831C 109.501,831.5 59.5011,831.667 9.5,831.5C 9.5,559.833 9.5,288.167 9.5,16.5C 106.833,16.5 204.167,16.5 301.5,16.5C 301.833,288.001 301.5,559.334 300.5,830.5 Z"/></g>
<g><path style="opacity:1" fill="#84744d" d="M 293.5,18.5 C 281.42,21.9748 269.753,26.6415 258.5,32.5C 226.5,32.5 194.5,32.5 162.5,32.5C 166.748,62.32 171.748,91.9867 177.5,121.5C 174.733,129.151 171.4,136.484 167.5,143.5C 165.475,139.864 163.975,135.864 163,131.5C 162.5,140.827 162.334,150.161 162.5,159.5C 160.162,169.184 157.662,178.851 155,188.5C 153.409,202.678 151.576,216.678 149.5,230.5C 148.833,197.664 148.167,164.664 147.5,131.5C 146.534,133.396 146.201,135.396 146.5,137.5C 129.872,229.266 113.872,321.266 98.5,413.5C 97.596,414.209 97.2627,415.209 97.5,416.5C 114.5,416.5 131.5,416.5 148.5,416.5C 148.168,357.331 148.501,298.331 149.5,239.5C 149.114,253.374 149.781,267.04 151.5,280.5C 154.768,296.832 158.435,313.165 162.5,329.5C 162.333,458.167 162.5,586.834 163,715.5C 164.202,713.323 164.702,710.989 164.5,708.5C 181.285,613.125 198.285,517.792 215.5,422.5C 221.471,429.475 227.471,436.475 233.5,443.5C 247.177,524.564 261.177,605.564 275.5,686.5C 272.972,695.213 269.639,703.546 265.5,711.5C 250.909,630.961 236.409,550.295 222,469.5C 201.627,583.407 181.793,697.407 162.5,811.5C 161.124,817.561 159.791,823.728 158.5,830C 109.168,830.5 59.8345,830.667 10.5,830.5C 10.5,559.5 10.5,288.5 10.5,17.5C 105.001,17.1673 199.335,17.5006 293.5,18.5 Z"/></g>
<g><path style="opacity:1" fill="#fbfbfb" d="M 298.5,30.5 C 294.216,31.2613 290.216,32.5947 286.5,34.5C 284.597,34.7959 282.93,35.4625 281.5,36.5C 276.343,37.8308 271.343,39.6641 266.5,42C 258.103,48.06 249.437,53.7267 240.5,59C 230.667,68.8333 220.833,78.6667 211,88.5C 205.058,98.107 198.725,107.44 192,116.5C 187.547,125.737 183.38,135.07 179.5,144.5C 174.981,152.54 171.981,161.207 170.5,170.5C 164.602,185.829 161.602,201.829 161.5,218.5C 160.487,237.825 160.487,257.158 161.5,276.5C 166.507,315.694 179.341,352.027 200,385.5C 203.032,389.359 206.198,393.026 209.5,396.5C 215.152,404.149 221.152,411.482 227.5,418.5C 234.751,427.924 242.584,436.924 251,445.5C 257.667,456.833 264.333,468.167 271,479.5C 274.943,489.704 279.11,499.704 283.5,509.5C 283.595,511.786 284.262,513.786 285.5,515.5C 292.268,538.867 296.601,562.533 298.5,586.5C 298.448,595.518 298.782,604.518 299.5,613.5C 297.683,626.649 296.183,639.982 295,653.5C 291.828,666.854 288.661,680.187 285.5,693.5C 283.188,699.425 280.854,705.425 278.5,711.5C 274.656,718.527 271.323,725.86 268.5,733.5C 260.036,746.402 251.536,759.402 243,772.5C 233.5,782 224,791.5 214.5,801C 205.328,806.752 196.328,812.752 187.5,819C 179.44,822.621 171.44,826.121 163.5,829.5C 162.325,829.719 161.325,829.386 160.5,828.5C 161.628,823.526 162.628,818.526 163.5,813.5C 169.515,811.439 175.515,809.272 181.5,807C 190.56,800.275 199.893,793.942 209.5,788C 218.667,778.833 227.833,769.667 237,760.5C 244.085,749.328 251.419,738.328 259,727.5C 261.456,722.259 263.623,716.925 265.5,711.5C 269.639,703.546 272.972,695.213 275.5,686.5C 281.521,669.404 285.187,651.738 286.5,633.5C 286.868,624.982 287.535,616.482 288.5,608C 287.431,594.184 286.764,580.351 286.5,566.5C 280.738,526.667 266.904,490 245,456.5C 241.301,451.973 237.468,447.639 233.5,443.5C 227.471,436.475 221.471,429.475 215.5,422.5C 208.545,413.707 201.378,405.04 194,396.5C 187.333,384.5 180.667,372.5 174,360.5C 171.099,351.951 167.933,343.617 164.5,335.5C 164.405,333.214 163.738,331.214 162.5,329.5C 158.435,313.165 154.768,296.832 151.5,280.5C 151.139,266.663 150.472,252.996 149.5,239.5C 149.5,236.5 149.5,233.5 149.5,230.5C 151.576,216.678 153.409,202.678 155,188.5C 157.662,178.851 160.162,169.184 162.5,159.5C 164.457,154.36 166.124,149.027 167.5,143.5C 171.4,136.484 174.733,129.151 177.5,121.5C 185.963,105.922 195.463,90.9216 206,76.5C 215.167,67.3333 224.333,58.1667 233.5,49C 242.241,43.9733 250.575,38.4733 258.5,32.5C 269.753,26.6415 281.42,21.9748 293.5,18.5C 295.861,18.3259 298.194,17.9926 300.5,17.5C 301.001,22.1532 300.334,26.4865 298.5,30.5 Z"/></g>
<g><path style="opacity:1" fill="#000000" d="M 307.5,70.5 C 306.503,53.6749 306.17,36.6749 306.5,19.5C 308.5,19.5 310.5,19.5 312.5,19.5C 312.5,32.5 312.5,45.5 312.5,58.5C 317.167,58.5 321.833,58.5 326.5,58.5C 326.5,46.5 326.5,34.5 326.5,22.5C 328.5,22.5 330.5,22.5 332.5,22.5C 332.5,34.5 332.5,46.5 332.5,58.5C 337.167,58.5 341.833,58.5 346.5,58.5C 346.5,44.8333 346.5,31.1667 346.5,17.5C 348.5,17.5 350.5,17.5 352.5,17.5C 352.5,35.5 352.5,53.5 352.5,71.5C 337.324,71.8294 322.324,71.4961 307.5,70.5 Z"/></g>
<g><path style="opacity:1" fill="#fefffe" d="M 307.5,70.5 C 307.5,53.8333 307.5,37.1667 307.5,20.5C 308.833,20.5 310.167,20.5 311.5,20.5C 311.5,33.5 311.5,46.5 311.5,59.5C 316.833,59.5 322.167,59.5 327.5,59.5C 327.5,47.5 327.5,35.5 327.5,23.5C 328.833,23.5 330.167,23.5 331.5,23.5C 331.5,35.5 331.5,47.5 331.5,59.5C 336.833,59.5 342.167,59.5 347.5,59.5C 347.5,45.8333 347.5,32.1667 347.5,18.5C 348.833,18.5 350.167,18.5 351.5,18.5C 351.5,35.8333 351.5,53.1667 351.5,70.5C 336.833,70.5 322.167,70.5 307.5,70.5 Z"/></g>
<g><path style="opacity:1" fill="#84744d" d="M 298.5,30.5 C 299.833,125.831 300.5,221.498 300.5,317.5C 300.333,413.167 300.167,508.833 300,604.5C 299.828,598.319 299.328,592.319 298.5,586.5C 296.601,562.533 292.268,538.867 285.5,515.5C 285.168,355.097 285.502,194.763 286.5,34.5C 290.216,32.5947 294.216,31.2613 298.5,30.5 Z"/></g>
<g><path style="opacity:1" fill="#000000" d="M 147.5,39.5 C 147.5,37.5 147.5,35.5 147.5,33.5C 107.167,33.5 66.8333,33.5 26.5,33.5C 26.5,160.833 26.5,288.167 26.5,415.5C 45.402,416.134 64.0686,415.467 82.5,413.5C 82.5,414.5 82.5,415.5 82.5,416.5C 63.5,416.5 44.5,416.5 25.5,416.5C 25.5,288.5 25.5,160.5 25.5,32.5C 66.5,32.5 107.5,32.5 148.5,32.5C 148.802,35.0593 148.468,37.3926 147.5,39.5 Z"/></g>
<g><path style="opacity:1" fill="#232323" d="M 147.5,39.5 C 126.321,164.379 104.654,289.045 82.5,413.5C 64.0686,415.467 45.402,416.134 26.5,415.5C 26.5,288.167 26.5,160.833 26.5,33.5C 66.8333,33.5 107.167,33.5 147.5,33.5C 147.5,35.5 147.5,37.5 147.5,39.5 Z"/></g>
<g><path style="opacity:1" fill="#212121" d="M 258.5,32.5 C 250.575,38.4733 242.241,43.9733 233.5,49C 224.333,58.1667 215.167,67.3333 206,76.5C 195.463,90.9216 185.963,105.922 177.5,121.5C 171.748,91.9867 166.748,62.32 162.5,32.5C 194.5,32.5 226.5,32.5 258.5,32.5 Z"/></g>
<g><path style="opacity:1" fill="#000000" d="M 286.5,34.5 C 285.502,194.763 285.168,355.097 285.5,515.5C 284.262,513.786 283.595,511.786 283.5,509.5C 284.5,352.001 284.833,194.334 284.5,36.5C 283.5,36.5 282.5,36.5 281.5,36.5C 282.93,35.4625 284.597,34.7959 286.5,34.5 Z"/></g>
<g><path style="opacity:1" fill="#232323" d="M 281.5,36.5 C 282.5,36.5 283.5,36.5 284.5,36.5C 284.833,194.334 284.5,352.001 283.5,509.5C 279.11,499.704 274.943,489.704 271,479.5C 264.333,468.167 257.667,456.833 251,445.5C 242.584,436.924 234.751,427.924 227.5,418.5C 228.139,417.903 228.472,417.07 228.5,416C 212.613,325.176 196.779,234.343 181,143.5C 180.617,144.056 180.117,144.389 179.5,144.5C 183.38,135.07 187.547,125.737 192,116.5C 198.725,107.44 205.058,98.107 211,88.5C 220.833,78.6667 230.667,68.8333 240.5,59C 249.437,53.7267 258.103,48.06 266.5,42C 271.343,39.6641 276.343,37.8308 281.5,36.5 Z"/></g>
<g><path style="opacity:1" fill="#fefffe" d="M 347.5,86.5 C 348.833,86.5 350.167,86.5 351.5,86.5C 351.5,103.833 351.5,121.167 351.5,138.5C 336.833,138.5 322.167,138.5 307.5,138.5C 307.5,134.833 307.5,131.167 307.5,127.5C 320.833,127.5 334.167,127.5 347.5,127.5C 347.5,113.833 347.5,100.167 347.5,86.5 Z"/></g>
<g><path style="opacity:1" fill="#000000" d="M 149.5,230.5 C 149.5,233.5 149.5,236.5 149.5,239.5C 148.501,298.331 148.168,357.331 148.5,416.5C 131.5,416.5 114.5,416.5 97.5,416.5C 97.2627,415.209 97.596,414.209 98.5,413.5C 114.466,415.485 130.799,416.152 147.5,415.5C 147.833,322.665 147.499,229.999 146.5,137.5C 146.201,135.396 146.534,133.396 147.5,131.5C 148.167,164.664 148.833,197.664 149.5,230.5 Z"/></g>
<g><path style="opacity:1" fill="#222222" d="M 146.5,137.5 C 147.499,229.999 147.833,322.665 147.5,415.5C 130.799,416.152 114.466,415.485 98.5,413.5C 113.872,321.266 129.872,229.266 146.5,137.5 Z"/></g>
<g><path style="opacity:1" fill="#121212" d="M 167.5,143.5 C 166.124,149.027 164.457,154.36 162.5,159.5C 162.334,150.161 162.5,140.827 163,131.5C 163.975,135.864 165.475,139.864 167.5,143.5 Z"/></g>
<g><path style="opacity:1" fill="#84744d" d="M 227.5,418.5 C 221.152,411.482 215.152,404.149 209.5,396.5C 196.931,321.083 183.931,245.75 170.5,170.5C 171.981,161.207 174.981,152.54 179.5,144.5C 180.117,144.389 180.617,144.056 181,143.5C 196.779,234.343 212.613,325.176 228.5,416C 228.472,417.07 228.139,417.903 227.5,418.5 Z"/></g>
<g><path style="opacity:1" fill="#fefffe" d="M 307.5,154.5 C 316.968,164.806 326.301,175.306 335.5,186C 340.823,186.499 346.156,186.666 351.5,186.5C 351.5,190.167 351.5,193.833 351.5,197.5C 346.156,197.334 340.823,197.501 335.5,198C 326.216,208.072 317.05,218.239 308,228.5C 307.333,224.5 307.333,220.5 308,216.5C 315.685,208.316 323.185,199.983 330.5,191.5C 322.813,182.981 315.313,174.314 308,165.5C 307.501,161.848 307.335,158.182 307.5,154.5 Z"/></g>
<g><path style="opacity:1" fill="#202020" d="M 170.5,170.5 C 183.931,245.75 196.931,321.083 209.5,396.5C 206.198,393.026 203.032,389.359 200,385.5C 179.341,352.027 166.507,315.694 161.5,276.5C 162.833,257.167 162.833,237.833 161.5,218.5C 161.602,201.829 164.602,185.829 170.5,170.5 Z"/></g>
<g><path style="opacity:1" fill="#feff00" d="M 161.5,218.5 C 162.833,237.833 162.833,257.167 161.5,276.5C 160.487,257.158 160.487,237.825 161.5,218.5 Z"/></g>
<g><path style="opacity:1" fill="#fefffe" d="M 307.5,234.5 C 308.833,234.5 310.167,234.5 311.5,234.5C 311.5,244.167 311.5,253.833 311.5,263.5C 324.833,263.5 338.167,263.5 351.5,263.5C 351.5,267.167 351.5,270.833 351.5,274.5C 338.496,274.333 325.496,274.5 312.5,275C 311.515,284.417 311.182,293.917 311.5,303.5C 310.167,303.5 308.833,303.5 307.5,303.5C 307.5,280.5 307.5,257.5 307.5,234.5 Z"/></g>
<g><path style="opacity:1" fill="#000000" d="M 149.5,239.5 C 150.472,252.996 151.139,266.663 151.5,280.5C 149.781,267.04 149.114,253.374 149.5,239.5 Z"/></g>
<g><path style="opacity:1" fill="#fefffe" d="M 338.5,314.5 C 341.755,314.014 344.422,315.014 346.5,317.5C 348.766,321.559 350.266,325.893 351,330.5C 353.151,344.893 352.818,359.227 350,373.5C 348.274,374.576 346.441,374.743 344.5,374C 348.105,362.121 349.271,349.954 348,337.5C 348.147,331.696 345.647,327.696 340.5,325.5C 337.939,327.607 336.106,330.274 335,333.5C 332.687,341.42 330.687,349.42 329,357.5C 327.657,362.364 325.823,367.031 323.5,371.5C 319.681,375.529 316.181,375.196 313,370.5C 310.248,365.162 308.582,359.495 308,353.5C 307.279,341.811 307.445,330.145 308.5,318.5C 310.288,318.215 311.955,318.548 313.5,319.5C 309.342,332.896 309.509,346.229 314,359.5C 318.739,363.978 322.072,362.978 324,356.5C 326.687,345.085 329.687,333.752 333,322.5C 334.306,319.379 336.14,316.713 338.5,314.5 Z"/></g>
<g><path style="opacity:1" fill="#000000" d="M 162.5,329.5 C 163.738,331.214 164.405,333.214 164.5,335.5C 163.167,459.833 163.167,584.167 164.5,708.5C 164.702,710.989 164.202,713.323 163,715.5C 162.5,586.834 162.333,458.167 162.5,329.5 Z"/></g>
<g><path style="opacity:1" fill="#222222" d="M 164.5,335.5 C 167.933,343.617 171.099,351.951 174,360.5C 180.667,372.5 187.333,384.5 194,396.5C 201.378,405.04 208.545,413.707 215.5,422.5C 198.285,517.792 181.285,613.125 164.5,708.5C 163.167,584.167 163.167,459.833 164.5,335.5 Z"/></g>
<g><path style="opacity:1" fill="#fefffe" d="M 307.5,425.5 C 321.974,434.239 336.307,443.239 350.5,452.5C 351.833,457.5 351.833,462.5 350.5,467.5C 338.872,475.296 326.872,482.462 314.5,489C 326.935,496.439 339.102,504.272 351,512.5C 351.828,517.202 351.662,521.869 350.5,526.5C 336.419,535.958 322.252,545.291 308,554.5C 307.204,550.245 307.371,546.079 308.5,542C 321.199,534.32 333.866,526.654 346.5,519C 333.833,511 321.167,503 308.5,495C 307.374,491.256 307.207,487.423 308,483.5C 320.59,475.238 333.423,467.405 346.5,460C 333.668,452.752 321.002,445.252 308.5,437.5C 307.509,433.555 307.176,429.555 307.5,425.5 Z"/></g>
<g><path style="opacity:1" fill="#000000" d="M 78.5,436.5 C 78.5,435.167 78.5,433.833 78.5,432.5C 61.1667,432.5 43.8333,432.5 26.5,432.5C 26.1672,531.668 26.5006,630.668 27.5,729.5C 27.5429,732.91 27.0429,736.243 26,739.5C 25.5,636.834 25.3333,534.167 25.5,431.5C 43.5,431.5 61.5,431.5 79.5,431.5C 79.7845,433.415 79.4511,435.081 78.5,436.5 Z"/></g>
<g><path style="opacity:1" fill="#000000" d="M 29.5,810.5 C 29.5,811.5 29.5,812.5 29.5,813.5C 68.8333,813.5 108.167,813.5 147.5,813.5C 147.5,686.5 147.5,559.5 147.5,432.5C 130.167,432.5 112.833,432.5 95.5,432.5C 95.7678,434.099 95.4345,435.432 94.5,436.5C 94.5,434.833 94.5,433.167 94.5,431.5C 112.5,431.5 130.5,431.5 148.5,431.5C 148.5,559.167 148.5,686.833 148.5,814.5C 108.5,814.5 68.5,814.5 28.5,814.5C 28.2322,812.901 28.5655,811.568 29.5,810.5 Z"/></g>
<g><path style="opacity:1" fill="#222222" d="M 78.5,436.5 C 62.0201,534.385 45.0201,632.051 27.5,729.5C 26.5006,630.668 26.1672,531.668 26.5,432.5C 43.8333,432.5 61.1667,432.5 78.5,432.5C 78.5,433.833 78.5,435.167 78.5,436.5 Z"/></g>
<g><path style="opacity:1" fill="#232323" d="M 29.5,810.5 C 50.5382,685.599 72.2049,560.932 94.5,436.5C 95.4345,435.432 95.7678,434.099 95.5,432.5C 112.833,432.5 130.167,432.5 147.5,432.5C 147.5,559.5 147.5,686.5 147.5,813.5C 108.167,813.5 68.8333,813.5 29.5,813.5C 29.5,812.5 29.5,811.5 29.5,810.5 Z"/></g>
<g><path style="opacity:1" fill="#212121" d="M 233.5,443.5 C 237.468,447.639 241.301,451.973 245,456.5C 266.904,490 280.738,526.667 286.5,566.5C 285.167,588.833 285.167,611.167 286.5,633.5C 285.187,651.738 281.521,669.404 275.5,686.5C 261.177,605.564 247.177,524.564 233.5,443.5 Z"/></g>
<g><path style="opacity:1" fill="#222222" d="M 265.5,711.5 C 263.623,716.925 261.456,722.259 259,727.5C 251.419,738.328 244.085,749.328 237,760.5C 227.833,769.667 218.667,778.833 209.5,788C 199.893,793.942 190.56,800.275 181.5,807C 175.515,809.272 169.515,811.439 163.5,813.5C 162.662,813.158 162.328,812.492 162.5,811.5C 181.793,697.407 201.627,583.407 222,469.5C 236.409,550.295 250.909,630.961 265.5,711.5 Z"/></g>
<g><path style="opacity:1" fill="#000000" d="M 347.5,563.5 C 347.5,577.5 347.5,591.5 347.5,605.5C 342.167,605.5 336.833,605.5 331.5,605.5C 331.5,593.5 331.5,581.5 331.5,569.5C 330.167,569.5 328.833,569.5 327.5,569.5C 327.5,581.5 327.5,593.5 327.5,605.5C 322.167,605.5 316.833,605.5 311.5,605.5C 311.5,592.5 311.5,579.5 311.5,566.5C 310.167,566.5 308.833,566.5 307.5,566.5C 307.5,583.167 307.5,599.833 307.5,616.5C 306.503,599.675 306.17,582.675 306.5,565.5C 308.5,565.5 310.5,565.5 312.5,565.5C 312.5,578.5 312.5,591.5 312.5,604.5C 317.167,604.5 321.833,604.5 326.5,604.5C 326.5,592.5 326.5,580.5 326.5,568.5C 328.5,568.5 330.5,568.5 332.5,568.5C 332.5,580.5 332.5,592.5 332.5,604.5C 337.167,604.5 341.833,604.5 346.5,604.5C 346.171,590.656 346.504,576.99 347.5,563.5 Z"/></g>
<g><path style="opacity:1" fill="#fefffe" d="M 347.5,563.5 C 348.833,563.5 350.167,563.5 351.5,563.5C 351.5,581.167 351.5,598.833 351.5,616.5C 336.833,616.5 322.167,616.5 307.5,616.5C 307.5,599.833 307.5,583.167 307.5,566.5C 308.833,566.5 310.167,566.5 311.5,566.5C 311.5,579.5 311.5,592.5 311.5,605.5C 316.833,605.5 322.167,605.5 327.5,605.5C 327.5,593.5 327.5,581.5 327.5,569.5C 328.833,569.5 330.167,569.5 331.5,569.5C 331.5,581.5 331.5,593.5 331.5,605.5C 336.833,605.5 342.167,605.5 347.5,605.5C 347.5,591.5 347.5,577.5 347.5,563.5 Z"/></g>
<g><path style="opacity:1" fill="#e2dd4e" d="M 286.5,566.5 C 286.764,580.351 287.431,594.184 288.5,608C 287.535,616.482 286.868,624.982 286.5,633.5C 285.167,611.167 285.167,588.833 286.5,566.5 Z"/></g>
<g><path style="opacity:1" fill="#84744d" d="M 299.5,613.5 C 300.499,685.665 300.833,757.998 300.5,830.5C 295.5,830.5 290.5,830.5 285.5,830.5C 279.94,798.141 274.273,765.807 268.5,733.5C 271.323,725.86 274.656,718.527 278.5,711.5C 279.117,711.611 279.617,711.944 280,712.5C 281.237,721.258 282.904,729.924 285,738.5C 285.5,723.504 285.667,708.504 285.5,693.5C 288.661,680.187 291.828,666.854 295,653.5C 296.183,639.982 297.683,626.649 299.5,613.5 Z"/></g>
<g><path style="opacity:1" fill="#fefffe" d="M 307.5,643.5 C 322.167,643.5 336.833,643.5 351.5,643.5C 351.904,649.29 351.404,654.956 350,660.5C 338.028,677.972 325.861,695.305 313.5,712.5C 326.149,713.499 338.816,713.832 351.5,713.5C 351.5,717.167 351.5,720.833 351.5,724.5C 336.833,724.5 322.167,724.5 307.5,724.5C 307.096,718.71 307.596,713.044 309,707.5C 321.167,690 333.333,672.5 345.5,655C 332.838,654.5 320.171,654.333 307.5,654.5C 307.5,650.833 307.5,647.167 307.5,643.5 Z"/></g>
<g><path style="opacity:1" fill="#161616" d="M 285.5,693.5 C 285.667,708.504 285.5,723.504 285,738.5C 282.904,729.924 281.237,721.258 280,712.5C 279.617,711.944 279.117,711.611 278.5,711.5C 280.854,705.425 283.188,699.425 285.5,693.5 Z"/></g>
<g><path style="opacity:1" fill="#fefffe" d="M 350.5,740.5 C 351.645,744.311 351.812,748.311 351,752.5C 347.333,755.833 343.667,759.167 340,762.5C 339.333,777.167 339.333,791.833 340,806.5C 343.667,809.5 347.333,812.5 351,815.5C 351.667,819.5 351.667,823.5 351,827.5C 336.667,815.167 322.333,802.833 308,790.5C 307.333,786.5 307.333,782.5 308,778.5C 322.334,765.933 336.5,753.267 350.5,740.5 Z"/></g>
<g><path style="opacity:1" fill="#1e1e1e" d="M 334.5,766.5 C 335.824,778.007 335.824,789.673 334.5,801.5C 327.023,795.857 319.689,790.024 312.5,784C 320.309,778.683 327.642,772.85 334.5,766.5 Z"/></g>
</svg>
