<?xml version="1.0" standalone="no"?>
<!DOCTYPE svg PUBLIC "-//W3C//DTD SVG 20010904//EN"
 "http://www.w3.org/TR/2001/REC-SVG-20010904/DTD/svg10.dtd">
<svg version="1.0" xmlns="http://www.w3.org/2000/svg"
 width="1700.000000pt" height="1700.000000pt" viewBox="0 0 1700.000000 1700.000000"
 preserveAspectRatio="xMidYMid meet">
<metadata>
Created by potrace 1.14, written by Peter Selinger 2001-2017
</metadata>
<g transform="translate(0.000000,1700.000000) scale(0.100000,-0.100000)"
fill="#000000" stroke="none">
<path d="M4850 8505 l0 -8495 3645 0 3645 0 0 8495 0 8495 -3645 0 -3645 0 0
-8495z m5155 8126 c611 -5 746 -3 828 15 l27 6 0 -74 c0 -49 -8 -95 -23 -140
l-23 -67 7 -538 c21 -1487 29 -3292 29 -6653 0 -2032 -3 -3760 -7 -3840 -4
-93 -9 -137 -15 -125 -5 12 -6 -60 -2 -165 15 -450 34 -2652 34 -3897 l0 -753
-148 0 -149 0 -12 73 c-40 232 -62 361 -75 432 -8 44 -26 148 -40 230 -33 188
-141 803 -160 910 -8 44 -23 126 -32 183 -10 56 -21 99 -25 95 -4 -5 -121
-181 -259 -393 l-252 -385 -271 -273 -272 -273 -291 -194 c-282 -188 -299
-198 -510 -291 -121 -52 -233 -98 -249 -101 -54 -9 -56 7 -24 167 16 79 33
147 37 151 4 4 32 14 62 24 202 65 294 107 394 179 55 41 187 130 291 199
l190 125 257 259 257 258 234 353 c213 321 239 364 288 485 62 154 64 176 31
352 -12 66 -29 156 -37 200 -21 119 -93 514 -115 635 -10 58 -26 144 -34 193
-9 48 -23 124 -31 170 -30 164 -66 364 -84 467 -18 98 -28 150 -66 363 -18 98
-55 308 -90 502 -29 165 -67 375 -96 535 -11 63 -31 176 -44 250 -13 74 -54
299 -90 500 -36 201 -77 426 -90 500 -13 74 -31 175 -40 225 -9 49 -20 94 -25
99 -6 6 -10 6 -10 0 0 -11 -13 -86 -35 -209 -9 -49 -20 -112 -25 -140 -5 -27
-21 -117 -35 -200 -15 -82 -38 -212 -51 -287 -13 -76 -35 -200 -49 -275 -52
-290 -84 -474 -115 -648 -49 -283 -59 -339 -76 -432 -8 -49 -24 -137 -34 -198
-10 -60 -26 -149 -34 -197 -9 -49 -23 -127 -32 -175 -8 -49 -24 -137 -34 -198
-10 -60 -26 -150 -35 -200 -9 -49 -20 -112 -25 -140 -23 -131 -73 -421 -90
-520 -10 -60 -33 -191 -50 -290 -17 -99 -40 -229 -50 -290 -10 -60 -33 -191
-50 -290 -17 -99 -40 -229 -50 -290 -10 -60 -33 -191 -50 -290 -17 -99 -55
-324 -85 -500 -30 -176 -68 -401 -85 -500 -17 -99 -46 -270 -65 -380 -18 -110
-43 -243 -55 -295 -11 -52 -29 -131 -38 -175 l-18 -80 -1472 -3 -1472 -2 0
8127 0 8126 2133 -8 c1172 -4 2434 -11 2802 -14z m1875 -521 l0 -520 -440 0
-440 0 0 500 0 500 40 0 40 0 0 -390 0 -390 160 0 160 0 0 360 0 360 40 0 40
0 0 -360 0 -360 160 0 160 0 0 410 0 410 40 0 40 0 0 -520z m0 -1360 l0 -520
-440 0 -440 0 0 110 0 110 400 0 400 0 0 410 0 410 40 0 40 0 0 -520z m-729
-1003 c74 -84 197 -222 272 -308 l137 -156 52 -6 c29 -4 101 -7 161 -7 l107 0
0 -109 0 -108 -157 -5 -158 -6 -64 -68 c-35 -38 -159 -174 -274 -302 -175
-195 -212 -231 -220 -217 -5 10 -7 61 -5 115 l4 98 110 118 c178 193 334 371
334 384 0 6 -37 53 -83 103 -161 179 -352 408 -359 430 -9 31 -10 197 0 196 4
0 68 -69 143 -152z m-71 -1727 l0 -290 400 0 400 0 0 -110 0 -110 -247 0
c-137 0 -312 -3 -389 -7 l-142 -6 -6 -41 c-4 -23 -9 -150 -13 -283 l-6 -243
-39 0 -38 0 0 690 0 690 40 0 40 0 0 -290z m650 -1328 c63 -34 118 -161 147
-342 37 -239 13 -770 -39 -822 -18 -18 -82 -25 -92 -10 -3 5 6 51 19 103 13
52 29 130 37 174 16 104 16 461 -1 532 -14 57 -65 124 -113 149 -29 15 -30 14
-63 -22 -19 -20 -43 -56 -54 -79 -21 -45 -86 -278 -121 -440 -26 -116 -70
-246 -111 -326 -23 -46 -37 -61 -73 -79 -52 -25 -77 -21 -119 19 -49 44 -97
161 -129 306 -14 68 -18 621 -5 718 8 56 9 57 41 57 18 0 40 -6 49 -12 15 -12
15 -18 -3 -88 -33 -126 -46 -291 -32 -422 16 -155 52 -286 86 -315 55 -47 116
-41 148 13 10 17 32 87 48 155 66 268 154 576 178 624 13 27 38 66 55 87 26
33 36 38 71 38 23 0 57 -8 76 -18z m-394 -2408 c443 -276 522 -330 531 -361
10 -36 10 -210 0 -245 -5 -19 -31 -44 -85 -80 -102 -69 -402 -249 -530 -318
-56 -30 -102 -57 -102 -60 0 -3 66 -45 147 -95 293 -179 563 -364 574 -393 13
-33 7 -219 -9 -248 -10 -18 -330 -236 -717 -488 -108 -70 -131 -82 -139 -69
-11 21 -2 193 12 219 6 11 177 121 381 245 204 123 371 226 371 229 0 3 -167
111 -371 239 -203 129 -375 244 -381 255 -14 25 -23 154 -14 191 5 19 36 45
120 99 109 72 518 319 604 366 23 13 42 26 42 29 0 3 -39 28 -88 55 -254 144
-653 390 -664 409 -6 12 -14 69 -16 126 l-5 104 39 -23 c22 -13 156 -97 300
-186z m544 -3084 l0 -530 -440 0 -440 0 0 500 0 500 40 0 40 0 0 -390 0 -390
160 0 160 0 0 360 0 360 40 0 40 0 0 -360 0 -360 160 0 160 0 0 420 0 420 40
0 40 0 0 -530z m-3 -1202 c-3 -73 -11 -151 -17 -173 -7 -22 -46 -89 -88 -150
-130 -188 -278 -400 -465 -663 -99 -139 -177 -255 -175 -258 10 -9 320 -23
531 -24 l217 0 0 -110 0 -110 -440 0 -440 0 0 94 c0 52 7 128 15 170 l14 76
358 515 c197 284 359 519 361 524 4 12 -215 21 -500 21 l-248 0 0 110 0 110
441 0 442 0 -6 -132z m-2 -1936 l0 -107 -65 -60 c-35 -33 -86 -80 -113 -105
l-48 -45 -6 -270 c-3 -149 -2 -346 2 -438 l7 -168 108 -87 c79 -64 109 -95
114 -116 8 -38 6 -177 -2 -197 -5 -13 -98 62 -412 333 -223 192 -416 358 -429
369 -21 17 -25 30 -29 99 -9 154 -17 142 209 340 110 96 299 266 422 376 143
130 226 198 232 192 6 -5 10 -57 10 -116z"/>
<path d="M5355 16348 c-3 -7 -4 -1739 -3 -3848 l3 -3835 575 0 575 0 6 70 c4
39 16 124 28 190 24 130 285 1605 327 1844 84 481 150 861 194 1111 44 251
120 686 220 1265 17 99 40 230 50 290 10 61 33 191 50 290 48 278 79 460 100
580 30 173 85 496 135 790 25 149 54 320 65 380 10 61 42 245 70 410 27 165
57 323 66 352 8 28 14 66 12 85 l-3 33 -1233 3 c-981 2 -1234 0 -1237 -10z"/>
<path d="M8100 16323 c0 -21 6 -76 14 -123 8 -47 19 -119 25 -160 56 -371 244
-1457 256 -1468 2 -2 16 18 31 45 110 194 248 419 367 598 l140 210 296 298
c291 293 298 299 431 381 162 101 350 233 350 246 0 7 -342 10 -955 10 l-955
0 0 -37z"/>
<path d="M10515 16290 c-22 -11 -70 -29 -106 -40 -132 -40 -216 -82 -388 -199
-97 -65 -219 -144 -271 -176 -84 -50 -129 -91 -378 -338 l-283 -282 -126 -190
c-69 -104 -159 -236 -200 -293 -73 -101 -140 -232 -259 -510 -67 -155 -67
-155 -51 -149 11 4 18 -20 31 -96 10 -56 33 -187 51 -292 18 -104 52 -296 74
-425 53 -302 150 -860 202 -1160 22 -129 56 -320 74 -425 18 -104 45 -260 60
-345 14 -85 33 -191 41 -235 16 -91 70 -396 109 -625 15 -85 48 -279 75 -430
56 -319 178 -1017 216 -1235 14 -82 24 -166 21 -185 -4 -31 4 -45 72 -130 92
-115 196 -235 310 -355 78 -83 104 -122 287 -435 155 -267 213 -376 254 -480
29 -74 84 -206 122 -294 37 -87 68 -167 68 -177 0 -28 27 -89 39 -89 7 0 8
375 4 1123 -6 1169 12 7396 24 8090 6 389 6 397 -13 397 -11 0 -38 -9 -59 -20z"/>
<path d="M7785 14353 c-3 -10 -11 -54 -15 -98 -5 -44 -18 -129 -29 -190 -49
-270 -91 -504 -101 -555 -6 -30 -19 -107 -31 -170 -11 -63 -31 -178 -45 -255
-13 -77 -35 -201 -48 -275 -14 -74 -36 -202 -51 -285 -14 -82 -30 -172 -35
-200 -5 -27 -16 -90 -25 -140 -9 -49 -25 -139 -35 -200 -10 -60 -31 -177 -45
-260 -46 -257 -117 -668 -155 -890 -10 -60 -37 -218 -60 -350 -23 -132 -46
-265 -50 -295 -5 -30 -28 -163 -50 -295 -23 -132 -45 -262 -49 -290 -57 -364
-145 -857 -157 -882 -34 -67 -59 -63 508 -61 l513 3 5 1507 c3 828 8 1509 11
1512 3 4 9 -42 13 -101 4 -60 11 -126 16 -148 11 -48 4 247 -12 470 -5 83 -12
269 -14 415 -5 349 -23 1332 -31 1733 -3 174 -9 317 -14 317 -4 0 -10 -8 -14
-17z"/>
<path d="M8108 14365 c-11 -18 -21 -545 -11 -545 9 0 71 178 93 270 10 40 9
52 -11 95 -12 28 -32 81 -43 120 -12 38 -25 65 -28 60z"/>
<path d="M8250 13565 c-37 -97 -90 -281 -114 -395 -44 -210 -50 -287 -46 -560
6 -391 6 -831 0 -1035 -4 -145 -1 -200 13 -280 107 -596 252 -1051 487 -1530
168 -341 252 -478 382 -619 56 -62 83 -82 73 -53 -5 11 -106 602 -126 732 -5
33 -13 85 -18 115 -34 193 -94 544 -101 590 -8 51 -55 326 -100 585 -10 61
-35 202 -54 315 -20 113 -47 270 -61 350 -14 80 -34 195 -45 255 -53 311 -93
535 -115 660 -37 204 -104 586 -136 770 -11 66 -23 122 -25 124 -2 2 -8 -9
-14 -24z"/>
<path d="M8090 9260 c0 -2755 13 -6571 24 -6567 13 4 31 81 45 192 6 44 19
130 30 190 11 61 27 151 36 200 9 50 23 128 31 175 9 47 24 135 34 195 25 141
73 417 116 653 15 83 22 127 43 245 5 28 22 120 36 202 15 83 38 212 51 287
13 76 36 201 49 278 14 77 37 203 50 280 14 77 37 203 50 280 14 77 37 203 50
280 14 77 36 202 50 277 13 76 38 215 55 308 16 94 42 235 56 315 14 80 32
179 40 220 8 41 25 138 39 215 31 174 41 228 60 335 8 47 20 110 25 140 49
274 62 345 75 410 7 41 17 98 21 127 l6 51 -103 129 c-57 70 -154 187 -215
259 -106 125 -122 150 -312 492 -124 222 -213 394 -231 447 -17 47 -60 161
-95 253 -35 92 -67 184 -70 204 -4 20 -15 47 -26 60 -19 23 -19 11 -20 -1132z"/>
<path d="M5353 8364 c-8 -21 6 -6120 14 -6141 10 -27 24 22 33 122 9 83 82
507 245 1410 13 72 47 263 75 425 29 162 67 381 85 485 43 241 114 650 181
1035 19 113 43 255 54 315 10 61 33 191 50 290 17 99 40 230 50 290 74 428
168 979 235 1385 26 151 51 285 57 297 6 12 11 39 12 60 l1 38 -543 3 c-496 2
-543 1 -549 -14z"/>
<path d="M6737 8373 c-4 -3 -7 -34 -7 -68 0 -50 -87 -561 -265 -1550 -31 -171
-87 -489 -114 -645 -11 -63 -58 -333 -105 -600 -47 -267 -99 -561 -115 -655
-98 -562 -113 -652 -161 -930 -17 -99 -40 -232 -51 -295 -11 -63 -31 -180 -45
-260 -23 -139 -63 -370 -104 -605 -11 -60 -44 -258 -75 -440 -31 -181 -81
-474 -111 -650 -29 -176 -75 -444 -100 -595 -25 -151 -52 -290 -60 -308 -9
-18 -14 -40 -12 -50 3 -16 79 -17 1208 -17 l1205 0 0 3835 0 3835 -541 3
c-297 1 -544 -1 -547 -5z"/>
<path d="M9520 8108 c0 -9 14 -96 31 -194 17 -99 34 -204 39 -234 5 -30 27
-163 50 -295 23 -132 45 -265 50 -295 4 -30 25 -149 45 -265 20 -115 44 -259
55 -320 49 -282 82 -472 104 -605 14 -80 34 -197 45 -260 11 -63 34 -196 51
-295 17 -99 38 -218 46 -265 23 -128 30 -170 63 -360 17 -96 40 -227 51 -290
11 -63 34 -194 51 -290 17 -96 35 -199 40 -227 5 -29 13 -77 18 -105 12 -69
69 -395 83 -476 6 -35 14 -59 19 -55 25 26 125 405 163 618 54 301 56 330 42
910 -6 252 -5 450 3 620 12 272 11 286 -45 565 -115 575 -354 1188 -664 1704
-113 189 -340 465 -340 414z"/>
<path d="M10487 2945 c-58 -151 -66 -178 -53 -190 7 -8 17 -40 21 -72 7 -59
43 -249 71 -381 9 -41 20 -70 24 -65 11 11 23 883 13 883 -5 0 -38 -79 -76
-175z"/>
<path d="M11460 1599 c-36 -33 -128 -108 -205 -166 -77 -58 -141 -109 -143
-113 -5 -13 415 -346 424 -337 3 2 10 63 16 133 14 178 1 545 -21 544 -3 -1
-35 -28 -71 -61z"/>
</g>
</svg>
