<?xml version="1.0" standalone="no"?>
<!DOCTYPE svg PUBLIC "-//W3C//DTD SVG 20010904//EN"
 "http://www.w3.org/TR/2001/REC-SVG-20010904/DTD/svg10.dtd">
<svg version="1.0" xmlns="http://www.w3.org/2000/svg"
 width="846.000000pt" height="846.000000pt" viewBox="0 0 846.000000 846.000000"
 preserveAspectRatio="xMidYMid meet">
<metadata>
Created by potrace 1.14, written by Peter Selinger 2001-2017
</metadata>
<g transform="translate(0.000000,846.000000) scale(0.100000,-0.100000)"
fill="#000000" stroke="none">
<path d="M2420 4230 l0 -4230 1815 0 1815 0 0 4230 0 4230 -1815 0 -1815 0 0
-4230z m3000 4020 l0 -70 -32 0 c-17 0 -88 -21 -157 -47 -193 -71 -373 -193
-554 -371 -274 -271 -460 -598 -571 -1005 -47 -172 -59 -233 -79 -412 -22
-191 -23 -230 -16 -429 5 -120 11 -221 14 -224 2 -3 2 107 -1 244 -3 145 -1
274 4 309 8 45 10 -25 10 -285 0 -331 1 -351 26 -485 42 -218 143 -492 261
-705 99 -180 191 -300 479 -629 104 -119 144 -174 232 -324 89 -151 119 -213
185 -384 67 -174 85 -234 121 -409 23 -113 44 -201 46 -195 6 17 -78 401 -99
454 -18 46 -19 122 -19 2438 l0 2389 28 11 c15 6 44 13 65 16 l37 6 2 -2804
c1 -1542 2 -2871 2 -2954 0 -82 -1 -608 -2 -1168 l-1 -1017 -71 0 c-38 0 -70
1 -70 3 0 1 -36 202 -78 447 l-78 445 50 112 c27 62 51 111 52 110 1 -1 10
-45 18 -97 22 -128 25 -140 36 -140 6 0 10 75 10 196 l0 196 55 212 c35 137
57 241 60 292 l4 79 -10 -80 c-5 -44 -35 -177 -65 -295 -49 -189 -67 -240
-148 -420 -124 -278 -241 -454 -440 -663 -128 -134 -157 -159 -306 -259 -132
-89 -188 -120 -277 -155 -62 -24 -117 -43 -121 -43 -6 0 -6 20 -1 48 5 26 11
61 14 78 5 29 12 34 93 64 61 24 134 65 247 141 223 149 358 286 514 522 155
233 250 448 326 737 46 178 56 233 74 416 19 190 20 232 10 415 -9 176 -16
233 -54 419 -38 185 -55 242 -118 405 -102 264 -226 475 -393 665 -283 323
-381 452 -488 644 -86 152 -113 213 -175 386 -61 173 -79 238 -112 414 -21
115 -40 232 -41 260 l-2 51 -3 -48 c-5 -61 70 -467 103 -553 l24 -64 1 -1918
c0 -1056 4 -1906 9 -1892 5 14 119 666 255 1450 136 784 248 1431 251 1438 2
8 41 -29 92 -87 l88 -100 208 -1198 c115 -659 209 -1212 210 -1230 0 -36 -84
-238 -94 -226 -4 4 -101 546 -215 1203 -114 657 -209 1197 -211 1199 -2 2 -6
2 -9 -1 -4 -3 -625 -3557 -625 -3574 0 -2 -331 -4 -735 -4 l-735 0 0 4032 0
4031 683 -6 c375 -4 970 -7 1322 -7 l640 0 90 34 c50 19 105 35 123 36 l32 0
0 -70z m520 -200 l0 -270 -220 0 -220 0 0 261 c0 243 1 260 18 257 15 -3 17
-22 20 -201 l2 -197 75 0 75 0 2 183 c3 174 4 182 23 182 19 0 20 -8 23 -182
l2 -183 80 0 80 0 0 210 c0 203 1 210 20 210 20 0 20 -7 20 -270z m0 -690 l0
-260 -220 0 -220 0 0 60 0 60 200 0 200 0 0 200 c0 193 1 200 20 200 19 0 20
-7 20 -260z m-1485 -1714 c129 -743 233 -1351 232 -1352 -1 -2 -41 46 -89 105
l-87 107 -196 1123 -195 1122 25 87 c27 99 67 194 72 172 2 -8 109 -622 238
-1364z m1402 974 l83 0 0 -55 0 -55 -80 0 c-69 0 -82 -3 -100 -22 -12 -13 -74
-83 -137 -155 -64 -73 -118 -133 -120 -133 -1 0 -3 26 -3 58 l1 57 109 120
c60 66 109 125 109 130 0 6 -49 68 -109 139 l-110 128 0 55 0 55 137 -161 137
-161 83 0z m-319 -633 l3 -147 199 0 200 0 0 -55 0 -55 -200 0 -200 0 0 -145
c0 -138 -1 -145 -20 -145 -20 0 -20 7 -20 351 0 328 1 350 18 347 15 -3 17
-20 20 -151z m346 -690 c45 -59 60 -142 59 -332 -2 -206 -8 -239 -46 -243 -30
-4 -31 -1 -17 48 32 109 29 364 -5 416 -21 32 -60 32 -81 -1 -9 -14 -36 -102
-60 -195 -45 -178 -71 -241 -110 -258 -27 -13 -65 12 -90 60 -37 71 -56 295
-38 446 6 49 9 52 35 52 27 0 27 -1 16 -37 -6 -21 -11 -99 -11 -173 -1 -177
25 -254 79 -233 25 9 44 56 76 186 16 67 39 150 50 184 37 112 94 144 143 80z
m-44 -1304 l95 -60 3 -69 2 -69 -166 -105 c-91 -58 -175 -108 -186 -113 -21
-7 -6 -18 295 -206 l58 -36 -3 -69 -3 -69 -218 -144 -218 -143 3 62 3 62 155
98 c85 53 170 105 188 113 18 9 30 19 28 23 -2 4 -88 61 -190 127 l-186 120 0
56 0 57 179 111 c99 61 184 111 190 111 29 0 -4 24 -179 128 l-190 113 0 59 0
60 123 -78 c67 -43 165 -106 217 -139z m100 -1443 l0 -270 -220 0 -220 0 0
255 c0 248 1 255 20 255 19 0 20 -7 20 -195 l0 -195 75 0 75 0 0 180 0 180 25
0 25 0 0 -180 0 -180 80 0 80 0 0 210 c0 203 1 210 20 210 20 0 20 -7 20 -270z
m-658 -269 c-8 -72 -9 -46 -9 159 l0 245 9 -159 c6 -97 6 -193 0 -245z m658
-340 l0 -69 -190 -276 c-104 -152 -190 -279 -190 -281 0 -3 86 -5 190 -5 l190
0 0 -55 0 -55 -220 0 -220 0 0 78 1 77 188 270 188 270 -189 3 -188 2 0 55 0
55 220 0 220 0 0 -69z m-1 -968 l0 -58 -65 -54 -64 -53 0 -217 1 -216 64 -50
65 -50 0 -58 c0 -45 -3 -56 -13 -50 -7 4 -106 89 -220 187 l-207 179 0 62 0
62 216 186 c118 103 217 187 220 187 2 0 4 -26 3 -57z"/>
<path d="M5049 8207 c-31 -19 -66 -41 -80 -50 -21 -15 -70 -17 -481 -17 l-458
0 0 -22 c0 -13 32 -211 71 -440 l73 -417 -51 -112 -51 -112 -7 39 c-16 94 -23
87 -24 -24 -1 -102 -5 -129 -51 -295 -35 -130 -55 -227 -68 -342 l-19 -160 -2
435 c-1 261 -5 441 -11 450 -5 8 -10 13 -11 10 -23 -113 -495 -2847 -492
-2852 5 -10 500 -10 506 0 3 4 6 421 8 927 l2 920 28 235 c25 206 35 259 83
431 45 158 73 235 144 390 75 164 107 221 210 369 165 240 311 385 531 530 85
56 173 111 195 120 23 10 34 19 25 19 -8 1 -40 -14 -70 -32z"/>
<path d="M2665 8128 c-3 -7 -4 -872 -3 -1923 l3 -1910 279 -3 c187 -1 283 1
290 8 12 12 673 3796 668 3823 -3 16 -43 17 -618 17 -483 0 -616 -3 -619 -12z"/>
<path d="M2667 4143 c-11 -11 -8 -3073 3 -3073 5 0 12 10 15 23 16 68 530
3048 526 3052 -7 8 -537 6 -544 -2z"/>
<path d="M3355 4138 c-11 -33 -663 -3813 -659 -3820 3 -4 271 -8 595 -8 l589
0 10 26 c7 16 9 703 8 1917 l-3 1892 -268 3 c-209 2 -268 0 -272 -10z"/>
<path d="M5660 684 c-58 -48 -106 -89 -107 -93 -2 -8 207 -174 213 -168 3 2 3
81 2 176 l-3 171 -105 -86z"/>
</g>
</svg>
