<svg xmlns="http://www.w3.org/2000/svg" width="98.709" height="100.7" viewBox="0 0 98.709 100.7"><g transform="translate(12928.146 -11026.48)"><rect width="8.14" height="100.7" rx="4.02" transform="translate(-12882.99 11026.48)"/><path d="M71.25,80.18H45.21a2.97,2.97,0,0,1-2.19-.96,3.215,3.215,0,0,1-1.07-3.09,3.267,3.267,0,0,1,3.43-2.56H71.77q.93,0,.27-.66l-8.17-8.24a2.838,2.838,0,0,1-.47-3.8,2.78,2.78,0,0,1,.63-.76,3.038,3.038,0,0,1,4.64.17L82.69,74.29a3.63,3.63,0,0,1,0,5.14L68.54,93.54q-2.23,2.22-4.47,0a6.243,6.243,0,0,1-.58-.67,2.539,2.539,0,0,1,.25-3.7l7.93-8Q72.65,80.18,71.25,80.18Z" transform="translate(-12970 11000)"/><path d="M110.69,80.18a.26.26,0,0,0-.18.44l7.54,7.55a4.14,4.14,0,0,1,.89,5.13,1.684,1.684,0,0,1-.82.83,3.34,3.34,0,0,1-4.12-.72L99.58,78.98a3.08,3.08,0,0,1,0-4.35l14.43-14.38a3.408,3.408,0,0,1,4.34-.67,1.429,1.429,0,0,1,.62.65q1.45,3-.66,5.05-3.99,3.9-7.64,7.54-.75.75.32.75l26.74.02a2.477,2.477,0,0,1,2.78,2.6l.04.63q.22,3.34-3.12,3.34Z" transform="translate(-12970 11000)"/></g></svg>