<svg xmlns="http://www.w3.org/2000/svg" xmlns:xlink="http://www.w3.org/1999/xlink" width="113.001" height="93.355" viewBox="0 0 113.001 93.355"><defs><clipPath id="a"><ellipse cx="7" cy="7.5" rx="7" ry="7.5" transform="translate(-12946 10798.66)"/></clipPath></defs><g transform="translate(12906.001 -10827.458)"><g transform="translate(139 63.34)" clip-path="url(#a)"><path d="M12.865,5.648H8.158V.941A.942.942,0,0,0,7.217,0H6.589a.942.942,0,0,0-.941.941V5.648H.941A.942.942,0,0,0,0,6.589v.628a.942.942,0,0,0,.941.941H5.648v4.707a.942.942,0,0,0,.941.941h.628a.942.942,0,0,0,.941-.941V8.158h4.707a.942.942,0,0,0,.941-.941V6.589A.942.942,0,0,0,12.865,5.648Zm0,0" transform="translate(-12946 10799)"/></g><path d="M76.52,32.24c20.38-5.09,40.16.88,54.8,15.88a.74.74,0,0,1-.06,1.09l-7.02,5.83a.446.446,0,0,1-.72-.08Q108.89,35.83,84.99,35.31,65.71,34.9,50.41,48.38a.084.084,0,0,1-.14-.01.215.215,0,0,1-.04-.12.172.172,0,0,1,.04-.11Q62.43,35.76,76.52,32.24Z" transform="translate(-12938.117 10797)"/><path d="M76.04,94.5q-2.89-4.4-5.65-7.86c-6.46-8.13-7.69-17.94-2.25-26.87,9.79-16.08,34.18-13.36,40.61,4.3,2.85,7.82.96,15.73-4.09,22.2a103.9,103.9,0,0,0-6.15,8.81c-1.42,2.27-1.05,5.49-.92,8.11a.56.56,0,0,1-.64.66l-19.41-.02a.494.494,0,0,1-.56-.6C77.19,100.44,77.69,97.01,76.04,94.5ZM86.98,59.08c5.95.13,10.98,3.83,12.24,9.65q.37,1.75.7,3.49c.56,2.92,5.29,2.55,5.49-.37a12.482,12.482,0,0,0-.21-3.61q-2.71-11.82-14.51-14.65c-2.35-.56-7.22-.43-6.09,3.64a2.525,2.525,0,0,0,2.38,1.85Z" transform="translate(-12938.117 10797)"/><rect width="13.96" height="2.74" rx="0.73" transform="translate(-12905.996 10868.338) rotate(0.1)"/><rect width="20.9" height="4.14" rx="1.69" transform="translate(-12861.148 10904.48)"/><path d="M91.41,120.98a4.2,4.2,0,0,1-6.92,1.63,10.11,10.11,0,0,1-1.4-2.12,1.5,1.5,0,0,0-.9-.59,5.277,5.277,0,0,1-3.96-3.6q-.32-.83.57-.83l17.48.01a.474.474,0,0,1,.39.205.5.5,0,0,1,.06.445,5.532,5.532,0,0,1-4.1,3.81,1.76,1.76,0,0,0-1.22,1.04Z" transform="translate(-12938.117 10797)"/></g></svg>