<svg xmlns="http://www.w3.org/2000/svg" width="115.04" height="81.123" viewBox="0 0 115.04 81.123"><g transform="translate(12773.515 -10672.635)"><path d="M126.16,79.27c-2.44-29.78-33.19-49.52-61.14-38.02q-19.44,8-26.26,28.67a.168.168,0,0,1-.23.12v-.01a.138.138,0,0,1-.11-.2q6.14-21.75,24.3-33.03A51.225,51.225,0,0,1,81,29.69c27.87-4.87,53.18,11.04,61.54,37.7a59.724,59.724,0,0,1,2.33,14.78q.03.6-.58.6l-17.31.03a.545.545,0,0,1-.61-.57Q126.28,80.8,126.16,79.27Z" transform="translate(-12804.185 10643.817)"/><path d="M138.09,97.79l6.97-.02a.63.63,0,0,1,.63.62l.02,2.43a.63.63,0,0,1-.62.63l-6.98.05a.63.63,0,0,0-.63.63l.06,7.11a.63.63,0,0,1-.62.64l-2.52.06a.63.63,0,0,1-.65-.63l.02-7.19a.63.63,0,0,0-.63-.64l-6.78-.06a.63.63,0,0,1-.62-.63l-.02-2.38a.63.63,0,0,1,.63-.63l6.79-.01a.63.63,0,0,0,.63-.63l-.03-7.06a.63.63,0,0,1,.64-.64l2.58.03a.63.63,0,0,1,.63.64l-.13,7.04a.63.63,0,0,0,.63.64Z" transform="translate(-12804.185 10643.817)"/><rect width="19.58" height="4" rx="0.27" transform="translate(-12773.515 10742.308)"/></g></svg>