<?xml version="1.0" encoding="UTF-8" standalone="no"?>
<!-- Created with Inkscape (http://www.inkscape.org/) -->

<svg
   version="1.1"
   id="svg1"
   width="168"
   height="85.613213"
   viewBox="0 0 168 85.613213"
   sodipodi:docname="Symbols_laminated.svg"
   inkscape:version="1.3.2 (091e20e, 2023-11-25, custom)"
   xmlns:inkscape="http://www.inkscape.org/namespaces/inkscape"
   xmlns:sodipodi="http://sodipodi.sourceforge.net/DTD/sodipodi-0.dtd"
   xmlns="http://www.w3.org/2000/svg"
   xmlns:svg="http://www.w3.org/2000/svg">
  <defs
     id="defs1" />
  <sodipodi:namedview
     id="namedview1"
     pagecolor="#ffffff"
     bordercolor="#000000"
     borderopacity="0.25"
     inkscape:showpageshadow="2"
     inkscape:pageopacity="0.0"
     inkscape:pagecheckerboard="0"
     inkscape:deskcolor="#d1d1d1"
     showgrid="false"
     inkscape:zoom="3.2375"
     inkscape:cx="93.127413"
     inkscape:cy="74.903475"
     inkscape:window-width="1920"
     inkscape:window-height="991"
     inkscape:window-x="-9"
     inkscape:window-y="-9"
     inkscape:window-maximized="1"
     inkscape:current-layer="g1" />
  <g
     inkscape:groupmode="layer"
     inkscape:label="Image"
     id="g1"
     transform="translate(-23,-43)">
    <path
       style="fill:#000000"
       d="M 23,125.00661 V 121.4 H 68.645998 114.292 l -0.246,3.4 -0.246,3.4 -45.4,0.20661 -45.4,0.2066 z m 93.6,-2.20987 v -3.40326 L 153.20323,82.796736 C 173.335,62.668533 190.075,46.2 190.40323,46.2 190.73145,46.2 191,47.731467 191,49.603261 v 3.403261 L 154.39677,89.603266 C 134.265,109.73147 117.525,126.2 117.19677,126.2 116.86855,126.2 116.6,124.66853 116.6,122.79674 Z m -88.8,-6.00746 c 0,-0.33589 4.95466,-5.55589 11.010355,-11.6 L 49.820709,94.199996 h 4.142432 c 2.278338,0 4.389306,0.39945 4.691042,0.88767 0.317494,0.51372 -3.95494,5.400514 -10.141672,11.600004 L 37.82223,117.4 H 32.811115 C 30.055002,117.4 27.8,117.12518 27.8,116.78928 Z m 15.2,-0.0491 c 0,-0.36292 5.001848,-5.58292 11.115217,-11.6 L 65.230433,94.199996 h 4.03757 c 2.220663,0 4.284444,0.39945 4.58618,0.88767 0.317494,0.51372 -3.95494,5.400514 -10.141672,11.600004 L 53.02223,117.4 H 48.011115 C 45.255002,117.4 43,117.10306 43,116.74014 Z m 15.2,0.0491 c 0,-0.33589 4.95466,-5.55589 11.010355,-11.6 L 80.220709,94.199996 h 4.142432 c 2.278338,0 4.389306,0.39945 4.691042,0.88767 0.317494,0.51372 -3.95494,5.400514 -10.141672,11.600004 L 68.22223,117.4 H 63.211115 C 60.455002,117.4 58.2,117.12518 58.2,116.78928 Z M 83.8,105.8 95.3793,94.199996 h 5.41035 c 2.97569,0 5.41035,0.34132 5.41035,0.7585 0,0.41717 -4.88715,5.637174 -10.86033,11.600004 L 84.479341,117.4 h -6.129323 -6.129322 z m 16,0 11.5793,-11.600004 h 4.61035 c 3.6391,0 4.61035,0.26232 4.61035,1.24518 0,0.68485 -4.70051,5.904854 -10.44558,11.600004 L 99.70885,117.4 h -5.74408 -5.744074 z m 15.2,0 11.5793,-11.600004 h 4.61035 c 3.57341,0 4.61035,0.27104 4.61035,1.20509 0,0.66279 -4.70957,5.882794 -10.4657,11.600004 L 114.86859,117.4 h -5.72395 -5.72394 z M 38.80071,87.199996 c -4.360926,-3.35815 -5.628216,-6.06717 -5.67003,-12.12052 -0.03036,-4.39584 0.323406,-5.84515 2.113686,-8.659238 3.959049,-6.223109 0.76101,-5.858589 49.36886,-5.627191 42.711464,0.203328 43.446224,0.233576 41.952544,1.727075 -2.57878,2.578481 -3.66813,5.465804 -4.13108,10.949434 -0.5088,6.02676 0.51964,10.00267 3.50517,13.55077 l 2.00237,2.37967 H 84.799938 41.657646 Z m 92.68832,-1.178 c -4.79032,-4.99946 -5.86593,-11.51259 -2.95854,-17.91487 1.38619,-3.052465 6.00995,-7.507126 7.79212,-7.507126 0.42437,0 1.4568,-0.501043 2.29429,-1.11343 1.29375,-0.946015 1.36216,-1.306879 0.45495,-2.4 C 138.13376,55.956245 135.0585,55.8 113.74926,55.8 c -16.80283,0 -24.422225,-0.270847 -24.799663,-0.881553 -0.306149,-0.495361 1.854183,-3.299086 4.931333,-6.4 L 99.35709,43 h 43.82145 C 167.28034,43 187,43.272411 187,43.605358 c 0,0.332946 -10.0311,10.631656 -22.29133,22.88602 -21.88992,21.879458 -22.35871,22.288258 -26.03379,22.702498 -3.60262,0.40606 -3.87114,0.28754 -7.18585,-3.17188 z"
       id="path1" />
  </g>
</svg>
