<svg xmlns="http://www.w3.org/2000/svg" width="71.998" height="123.844" viewBox="0 0 71.998 123.844"><g transform="translate(12878.245 -10959.965)"><path d="M73.15,120.61a15.055,15.055,0,0,1-2.9-7.48q-1.1-8.92-2.34-16.54a15.106,15.106,0,0,0-4.47-8.05,35.456,35.456,0,0,1-9.93-32.88,35.937,35.937,0,0,1,59.92-18.81q12.72,12.47,11.15,29.74a33.727,33.727,0,0,1-10.6,22.03c-3.17,3.03-4.62,6.41-5.33,10.78q-1.02,6.31-1.55,12.7c-.27,3.23-1.45,6.21-2.41,9.26a1.065,1.065,0,0,1-.89.74q-12.78,1.46-25.64,2.76a28.181,28.181,0,0,1-3.83.12,1.4,1.4,0,0,1-1.05-.5,1.835,1.835,0,0,1-.11-2.49A1.16,1.16,0,0,0,73.15,120.61Zm5.15-.31c6.81-.78,13.68-1.31,20.45-1.88a3.147,3.147,0,0,0,2.96-2.37c2.87-9.2.55-19.87,6.78-27.85,1.96-2.49,4.5-4.54,6.3-7.15,9.28-13.5,6.62-31.13-5.26-41.81a31.475,31.475,0,0,0-41.03-.41C56.27,49.28,53.61,65.8,61.86,79.81c1.73,2.95,4.42,5.15,6.59,7.73a16.086,16.086,0,0,1,3.25,6.43,95.257,95.257,0,0,1,2.59,17.47q.2,3.13,3.29,8.5A.671.671,0,0,0,78.3,120.3Z" transform="translate(-12931 10933)"/><path d="M70,70.74l7.6-.06a1.094,1.094,0,0,1,1.12.76,1.232,1.232,0,0,1,.08.62.575.575,0,0,1-.57.52l-10.55-.01a.4.4,0,0,1-.4-.39l-.01-17.41a.679.679,0,0,1,.71-.76l.49-.02a.835.835,0,0,1,.633.227.855.855,0,0,1,.267.623L69.27,70A.644.644,0,0,0,70,70.74Z" transform="translate(-12931 10933)"/><path d="M83.71,62.49l10.02-.09a.41.41,0,0,1,.41.4l.03,1.21a.41.41,0,0,1-.41.42H83.77a.41.41,0,0,0-.41.4l-.1,5.52a.41.41,0,0,0,.41.42l10.9-.09a.41.41,0,0,1,.41.35l.16,1.01a.41.41,0,0,1-.4.48l-12.8.02a.41.41,0,0,1-.41-.41l-.04-17.56a.41.41,0,0,1,.41-.41l12.54.03a.41.41,0,0,1,.41.45l-.11,1.15a.41.41,0,0,1-.41.37l-10.56-.04a.41.41,0,0,0-.41.41l-.07,5.54a.41.41,0,0,0,.42.42Z" transform="translate(-12931 10933)"/><path d="M99.07,54.54a.47.47,0,0,1,.47-.47h6.83a7.931,7.931,0,0,1,7.86,8v2.54a7.931,7.931,0,0,1-7.86,8H99.54a.47.47,0,0,1-.47-.47Zm2.16,2.18.02,13.36a.63.63,0,0,0,.63.63l4-.01a6.226,6.226,0,0,0,6.06-6.381V62.44a6.226,6.226,0,0,0-6.081-6.36l-4,.01A.63.63,0,0,0,101.23,56.72Z" transform="translate(-12931 10933)"/><rect width="32.4" height="4.36" rx="2.13" transform="translate(-12858.467 11059.649) rotate(-5.7)"/><rect width="32.34" height="4.38" rx="2.11" transform="translate(-12858.406 11065.278) rotate(-5.6)"/><rect width="32.24" height="4.38" rx="1.95" transform="translate(-12858.367 11070.974) rotate(-5.6)"/><path d="M99.15,142.21c-1.59,10.19-14.62,11.81-18.76,2.23a.74.74,0,0,1,.61-1.03l17.78-1.6a.334.334,0,0,1,.28.107.356.356,0,0,1,.09.293Z" transform="translate(-12931 10933)"/></g></svg>