<svg xmlns="http://www.w3.org/2000/svg" width="73.01" height="73.29" viewBox="0 0 73.01 73.29"><g transform="translate(13085.74 -11131.56)"><path d="M78.14,95.02l-22.13.09a.75.75,0,0,1-.75-.75l.03-48.05a.75.75,0,0,1,.75-.75l33.83.06a.75.75,0,0,1,.74.74l.2,36.1a.75.75,0,0,0,.74.74l35.96.19a.75.75,0,0,1,.75.75l.01,33.95a.75.75,0,0,1-.75.75l-47.9.01a.75.75,0,0,1-.75-.75l.02-22.33A.75.75,0,0,0,78.14,95.02Zm.09-2.26a.66.66,0,0,0,.66-.67l-.1-8.26a.66.66,0,0,1,.64-.66l8.66-.19a.66.66,0,0,0,.65-.66l.01-33.92a.66.66,0,0,0-.66-.66l-30.3.01a.66.66,0,0,0-.66.66l.03,43.78a.66.66,0,0,0,.66.66Zm47.86-6.61a.64.64,0,0,0-.64-.64H81.41a.64.64,0,0,0-.64.64v29.78a.64.64,0,0,0,.64.64h44.04a.64.64,0,0,0,.64-.64Z" transform="translate(-13141 11086)"/><path d="M106.06,62.7l-.72.77a.41.41,0,0,1-.58.02l-6.95-6.58a.41.41,0,0,1-.01-.59l6.6-6.6a.41.41,0,0,1,.42-.09l1.13.39a.41.41,0,0,1,.16.67l-5.17,5.52a.41.41,0,0,0,.01.56l5.11,5.37a.41.41,0,0,1,0,.56Z" transform="translate(-13141 11086)"/><path d="M118.08,70.95c-.62-7.67-4.8-12.95-13.14-13.39a1.206,1.206,0,0,1-1.03-1.7.616.616,0,0,1,.56-.38c8.4-.46,15.52,6.75,15.31,15.16a.84.84,0,0,1-.93.81l-.33-.04A.5.5,0,0,1,118.08,70.95Z" transform="translate(-13141 11086)"/><path d="M117.78,73.74a1.426,1.426,0,0,0,1.045.518,1.4,1.4,0,0,0,1.075-.438q1.92-2.01,4.04-3.93a1.526,1.526,0,0,1,1.61-.29.59.59,0,0,1,.3.49.455.455,0,0,1-.08.36,39.538,39.538,0,0,1-6.09,6.41,1.44,1.44,0,0,1-1.97-.1l-5.24-5.46a1.374,1.374,0,0,1-.3-1.58l.13-.31a.354.354,0,0,1,.233-.212.376.376,0,0,1,.317.052A23.83,23.83,0,0,1,117.78,73.74Z" transform="translate(-13141 11086)"/></g></svg>