<svg xmlns="http://www.w3.org/2000/svg" width="80.822" height="88.199" viewBox="0 0 80.822 88.199"><g transform="translate(13131.485 -11004.23)"><path d="M90.8,44.7l-3.78.07a.68.68,0,0,1-.69-.69l.07-5.18a.68.68,0,0,1,.68-.67l14.94.03a.68.68,0,0,1,.68.67l.1,5.07a.68.68,0,0,1-.68.7l-3.47.03a.68.68,0,0,0-.67.62l-.16,1.85a.68.68,0,0,1-.68.62l-5-.01a.68.68,0,0,1-.68-.69l.03-1.73a.68.68,0,0,0-.69-.69Z" transform="translate(-13175 10966)"/><path d="M68.86,64.3q7.77-12.2,20.76-14.28a28.912,28.912,0,0,1,17.59,2.37,29.879,29.879,0,0,1-.93,54.39c-1.72.79-3.44,1.19-5.14.03a12.827,12.827,0,0,0-6.97-2.24,2.925,2.925,0,0,1-.59-.08,3.12,3.12,0,0,1-2.23-1.74q-.32-.71.46-.65c16.1,1.24,27.82-11.06,25.26-27.17-2.43-15.24-20.3-23.25-33.53-15.8Q73.41,64.84,71.61,77.3q-.15,1.06-.84.24l-1.8-2.15a2.57,2.57,0,0,1-.56-2.08,23.019,23.019,0,0,0,.15-7.59A1.987,1.987,0,0,1,68.86,64.3Z" transform="translate(-13175 10966)"/><rect width="3.76" height="5.88" rx="1.39" transform="translate(-13058.127 11024.122) rotate(-36.8)"/><path d="M58.93,66.33c.79-1.17.22-3.11-.76-4.12a41.83,41.83,0,0,1-3.58-4.22.92.92,0,0,1,.81-1.47,12.428,12.428,0,0,1,10.36,6.51,10.043,10.043,0,0,1,1,8.42c-1.05,2.88,1.21,4.75,2.93,6.94q10.2,12.99,20.49,25.67a5.472,5.472,0,0,0,4.22,2.25q7.91.25,9.73,7.74a9.87,9.87,0,0,1-7.05,11.94,9.548,9.548,0,0,1-10.42-3.17,9.177,9.177,0,0,1-2.05-9.66,1.608,1.608,0,0,0-.01-1.13,9.173,9.173,0,0,0-1.62-2.81Q71.79,95.92,59.55,81.68c-2.05-2.38-5.66-.78-8.24-1.91q-9.03-3.95-7.6-13.57a.85.85,0,0,1,.81-.72,1,1,0,0,1,.89.46,54.8,54.8,0,0,0,3.69,4.7C52,73.93,57.41,68.56,58.93,66.33Zm38.94,46.06c-1.3-.93-4.03-2.44-5.54-1.14q-1.47,1.27-2.98,2.44a1.078,1.078,0,0,0-.44,1.05l.56,4.27a1.215,1.215,0,0,0,.51.86,10.313,10.313,0,0,0,5.05,1.96,1.71,1.71,0,0,0,1.33-.46l3.17-2.93a.992.992,0,0,0,.31-1C99.47,115.8,99.33,113.45,97.87,112.39Z" transform="translate(-13175 10966)"/><path d="M103.95,89.44l-1.89,1.88a1.22,1.22,0,0,1-1.78-.07l-7.93-9.12a1.22,1.22,0,0,1-.3-.79l-.06-18.56a1.22,1.22,0,0,1,1.24-1.22l2.87.03a1.22,1.22,0,0,1,1.2,1.22l.06,16.88a1.22,1.22,0,0,0,.3.79l6.35,7.29a1.22,1.22,0,0,1-.06,1.67Z" transform="translate(-13175 10966)"/></g></svg>