<svg xmlns="http://www.w3.org/2000/svg" width="87.319" height="87.46" viewBox="0 0 87.319 87.46"><g transform="translate(12969.58 -10838.423)"><path d="M89.7,68.49q19.16,19.37,38.4,38.67,5.28,5.29,2.9,12.2a5.761,5.761,0,0,1-1.89,2.79c-1.22.92-1.97,1.89-3.55,2.3a10.834,10.834,0,0,1-10.98-2.93q-3.96-3.92-7.68-7.72a1.815,1.815,0,0,1-.49-1.6,24.576,24.576,0,0,0-1.29-14.07c-4.6-10.4-15.39-16.57-26.81-13.8a.973.973,0,0,1-1-.3l-1.39-1.5a.939.939,0,0,0-1-.28q-13.27,3.57-22.88-4.89a23.018,23.018,0,0,1-6.59-10.59,22.772,22.772,0,0,1-.44-11.96q.6-2.76,2.12-.37a3.906,3.906,0,0,0,.62.75q4.85,4.61,9.57,9.62a2.69,2.69,0,0,0,2.5.8c3.22-.67,7.28-1.34,10.13-3.14a1.217,1.217,0,0,0,.59-.88,54.166,54.166,0,0,1,2.49-9.36,1.18,1.18,0,0,0-.26-1.22q-5.19-5.36-9.9-9.85a21.193,21.193,0,0,1-2.32-2.63q-.18-.25.12-.32A31.812,31.812,0,0,1,71,37.59c8.56.84,17.01,8.3,18.71,17.03q.43,2.19.88,4.21c.61,2.72-.85,6-1.21,8.72A1.073,1.073,0,0,0,89.7,68.49Zm34.66,43.78a4.8,4.8,0,1,0-4.8,4.8,4.8,4.8,0,0,0,4.8-4.8Z" transform="translate(-13014 10801)"/><path d="M100.99,106.97a17.2,17.2,0,1,1-17.2-17.2,17.2,17.2,0,0,1,17.2,17.2Zm-18.71.35a1.15,1.15,0,0,1-1.65-.02l-2.74-2.87a1.15,1.15,0,0,0-1.66-.01l-1.78,1.83a1.15,1.15,0,0,0,.03,1.63l6.31,6.11a1.15,1.15,0,0,0,1.61-.01L92.93,103.4a1.15,1.15,0,0,0,.02-1.6l-1.74-1.82a1.15,1.15,0,0,0-1.65-.02Z" transform="translate(-13014 10801)"/></g></svg>