<svg xmlns="http://www.w3.org/2000/svg" width="75" height="96.215" viewBox="0 0 75 96.215"><g transform="translate(12882.275 -10943.125)"><path d="M120.84,33.97c-3.77-6.37-9.85-9.28-17.13-9.83a2.035,2.035,0,0,1-1.4-.717,2.015,2.015,0,0,1-.465-1.493,1.707,1.707,0,0,1,1.63-1.64,13.893,13.893,0,0,1,6.06.4q13.71,3.96,17.56,17.49a17.049,17.049,0,0,1,.52,6.5,1.555,1.555,0,0,1-1.48,1.38c-1.75.07-2.47-1.35-2.63-2.83A22.64,22.64,0,0,0,120.84,33.97Z" transform="translate(-12935 10923)"/><path d="M112,35.47a12.768,12.768,0,0,0-8.45-3.32,1.8,1.8,0,0,1-1.26-3.07,3.391,3.391,0,0,1,2.91-.87,15.628,15.628,0,0,1,12.76,8.4c1.02,1.88,2.66,7.35.7,9.12q-1.03.92-2.39-.25a1.945,1.945,0,0,1-.67-1.51,11.571,11.571,0,0,0-.37-3.22A15.761,15.761,0,0,0,112,35.47Z" transform="translate(-12935 10923)"/><path d="M69.87,61.77a13.887,13.887,0,0,0,2.98,11.37c4.2,5.34,11.66,5.99,17.55,3.45a.63.63,0,0,1,.83.34l2.44,5.98a.642.642,0,0,1-.15.76l-9.91,9.91a5.25,5.25,0,0,1-7.42,0L54.21,71.6a5.08,5.08,0,0,1-.01-7.17q14.86-14.92,29-29.01,4.33-4.31,8.68.08,10.25,10.32,20.3,20.24c3.09,3.05,3.1,6.45-.09,9.45q-2.99,2.81-6.04,6.09a.65.65,0,0,1-1.08-.2c-.85-2.09-1.19-4.39-2.98-5.97a9.989,9.989,0,0,0-3.62-2.12.905.905,0,0,1-.63-.6c-.35-.94-.29-1.87-.68-2.83a15.363,15.363,0,0,0-5.61-7.11A13.963,13.963,0,0,0,69.87,61.77Z" transform="translate(-12935 10923)"/><path d="M98.6,39.03a.11.11,0,0,1,0-.16l.02-.02a6.958,6.958,0,0,1,9.81.42l.17.17a6.957,6.957,0,0,1,.38,9.81l-.02.02a.11.11,0,0,1-.15,0Z" transform="translate(-12935 10923)"/><path d="M77.68,62.44a5.223,5.223,0,0,0,.74,5.94q2.97,3.62,6.89,1.85,3.86-1.76,3.49-6.87a1.24,1.24,0,0,1,1.05-1.31l.31-.04a1.405,1.405,0,0,1,1.82,1.4c1.09,9.95-11.84,14.72-16.8,5.82-3.81-6.82,1.75-14.47,9.48-13.27a1.165,1.165,0,0,1,1.1,1.28v.41q.01,1.59-1.58,1.42Q79.5,58.54,77.68,62.44Z" transform="translate(-12935 10923)"/><rect width="3.14" height="10.1" rx="1.36" transform="translate(-12845.492 10978.872) rotate(44.6)"/><path d="M96.84,83.41Q94.87,78.82,93,74.67q-2.13-4.71,1.76-8.32c2.19-2.03,5.23-.41,6.26,1.91q2.78,6.24,5.84,13.25a9.23,9.23,0,0,1,.78,6.14,10.252,10.252,0,0,1-2.84,4.24q-5.83,5.87-10.53,11.2a3.45,3.45,0,0,1-2.58,1.16H67.79a4.725,4.725,0,0,1-4.72-4.59q-.22-7.48-.05-14.66.01-.83.62-.25,4.33,4.21,9.7,9.78c3.41,3.55,8.06,4.66,11.85,1.08q4.6-4.33,11.51-11.42A.659.659,0,0,0,96.84,83.41Z" transform="translate(-12935 10923)"/><rect width="31.14" height="9.88" rx="4.09" transform="translate(-12871.45 11029.46)"/></g></svg>