<?xml version="1.0" encoding="UTF-8" standalone="no"?>
<!-- Created with Inkscape (http://www.inkscape.org/) -->

<svg
   version="1.1"
   id="svg1"
   width="109.56003"
   height="114.24096"
   viewBox="0 0 109.56003 114.24096"
   sodipodi:docname="Symbols_TOUCH.svg"
   inkscape:version="1.3.2 (091e20e, 2023-11-25, custom)"
   xmlns:inkscape="http://www.inkscape.org/namespaces/inkscape"
   xmlns:sodipodi="http://sodipodi.sourceforge.net/DTD/sodipodi-0.dtd"
   xmlns="http://www.w3.org/2000/svg"
   xmlns:svg="http://www.w3.org/2000/svg">
  <defs
     id="defs1" />
  <sodipodi:namedview
     id="namedview1"
     pagecolor="#ffffff"
     bordercolor="#000000"
     borderopacity="0.25"
     inkscape:showpageshadow="2"
     inkscape:pageopacity="0.0"
     inkscape:pagecheckerboard="0"
     inkscape:deskcolor="#d1d1d1"
     inkscape:zoom="5.6568543"
     inkscape:cx="43.221902"
     inkscape:cy="61.960232"
     inkscape:window-width="1920"
     inkscape:window-height="991"
     inkscape:window-x="-9"
     inkscape:window-y="-9"
     inkscape:window-maximized="1"
     inkscape:current-layer="g1" />
  <g
     inkscape:groupmode="layer"
     inkscape:label="Image"
     id="g1"
     transform="translate(-70.744402,-30.701089)">
    <path
       style="fill:#000000"
       d="m 143.9444,144.18615 c -4.92822,-1.18898 -38.19175,-18.24664 -39.95608,-20.48962 -2.0878,-2.65421 -2.09615,-5.88344 -0.022,-8.52027 1.36267,-1.73235 2.25775,-2.05698 5.60025,-2.03109 2.18809,0.017 2.23767,0.23655 4.38229,0.68441 0.41367,0.0864 1.97625,0.62605 3.79975,1.18165 1.80808,0.5509 4.04334,0.71158 4.83477,0.93589 1.28354,0.36378 1.23026,-0.01 -0.49327,-3.45844 -3.8192,-7.642 -11.57248,-24.334954 -13.50024,-29.066284 -0.44819,-1.1 -1.89284,-4.09129 -3.21033,-6.6473 -1.83426,-3.55859 -2.27929,-5.26645 -1.89963,-7.29017 0.79861,-4.256985 5.18951,-7.015257 8.41749,-5.287695 1.59337,0.852744 7.58519,9.063925 8.61738,11.809245 0.2928,0.77876 1.68949,3.23428 3.10375,5.45673 1.41427,2.22244 3.13307,5.28244 3.81957,6.8 0.6865,1.51755 2.35175,4.55919 3.70055,6.75919 1.3488,2.2 3.14908,5.530004 4.00064,7.400004 1.50515,3.30531 2.64154,4.15912 3.55927,2.6742 0.40895,-0.66169 -1.36621,-4.60117 -7.59569,-16.856494 -1.22516,-2.41026 -2.05576,-4.66026 -1.84579,-5 0.43956,-0.71122 6.31598,-0.81159 8.68734,-0.14839 1.07056,0.29941 2.9236,3.20638 5.6,8.78503 2.2,4.58565 4.39,8.339374 4.86667,8.341604 1.59525,0.007 1.79745,-0.901434 0.68008,-3.057024 -0.6098,-1.17641 -1.83492,-3.75893 -2.72248,-5.73893 -0.88757,-1.98 -2.30981,-4.68 -3.16054,-6 -3.37546,-5.23738 -0.90357,-8.02394 5.43359,-6.12528 2.70753,0.81119 3.30298,1.58288 7.1798,9.30491 2.32509,4.6312 4.5752,8.42037 5.00026,8.42037 1.83456,0 1.3489,-2.4468 -1.66085,-8.36749 -1.76909,-3.4801 -3.21653,-6.76103 -3.21653,-7.29095 0,-1.3036 4.94684,-2.15126 7.30128,-1.2511 3.01487,1.15265 4.45873,3.24758 10.92484,15.85117 l 6.08379,11.858374 0.0451,7.6 c 0.0558,9.42093 -0.28648,10.64424 -4.62935,16.54361 -7.369,10.01008 -20.27736,14.98215 -31.72561,12.22014 z M 76.52769,124.60502 c -1.13118,-0.75048 -1.910924,-1.78504 -2.743849,-2.5249 -1.144666,-1.01676 -1.948398,-2.24228 -2.257695,-3.00518 l -0.434723,-1.07228 -0.347021,-1.48201 V 79.120556 l -0.0273,-37.44419 0.488097,-2.253528 0.439453,-0.89187 c 0.591796,-1.20105 1.812441,-2.483654 3.088837,-3.622009 0.952275,-0.849287 2.688825,-2.135504 3.674252,-2.524019 l 1.7321,-0.772433 2.601859,-0.590113 32.21504,-0.263354 c 20.87428,-0.170645 33.59111,0.200311 36.20785,0.592948 3.06133,0.459347 6.07802,1.345004 8.20026,2.989925 1.92217,1.489855 3.22734,3.689735 4.15183,6.125518 1.55568,4.09882 2.02772,4.60898 2.02772,19.19763 0,13.466555 -0.13901,15.075165 -1.26543,14.642925 -0.69599,-0.26708 -1.95599,-0.48559 -2.8,-0.48559 -1.45659,0 -1.53472,-0.74188 -1.53756,-14.600002 -0.003,-16.310193 -0.51063,-18.185636 -5.7897,-21.404321 -2.49183,-1.519292 -4.09058,-1.58983 -36.09839,-1.592688 -32.514121,-0.0029 -34.042151,-0.227134 -36.936175,1.3994 -5.159948,2.979957 -5.172743,2.447033 -5.172743,40.546741 0,37.005404 0.07516,37.706024 4.410943,41.116554 1.680137,1.3216 3.297637,1.73432 6.796944,1.73432 7.237639,0 9.174345,0.62253 10.173738,3.27022 l 0.879392,2.32978 -8.130508,-0.003 c -7.615378,-0.003 -9.392635,-0.11055 -11.713244,-1.10663 z M 98.945823,86.392846 c -3.540943,-1.86445 -5.68021,-3.353033 -7.6,-6.86616 -2.450653,-4.48458 -3.339516,-7.305523 -3.547449,-11.25322 -0.247237,-4.693886 2.202658,-9.35356 3.288294,-11.079375 1.347843,-2.142642 4.155322,-5.110963 6.72278,-6.743101 3.849492,-2.447131 7.152622,-3.062786 10.934952,-3.072899 3.43134,-0.0092 7.07078,0.206145 10.4,2.506883 4.51547,3.120527 5.81797,4.927359 8.40448,9.817962 2.72807,5.158255 2.83487,11.45034 0.27634,16.28085 -0.99047,1.87 -1.98147,3.38052 -2.20223,3.35671 -0.25828,-0.02784 -5.77228,-10.506999 -9.06424,-13.942664 -3.05564,-3.189052 -3.63952,-3.950756 -6.67718,-3.919048 -1.84946,0.01931 -4.9088,0.509683 -6.73777,2.529345 -1.45479,1.606455 -2.32218,4.162857 -2.32218,6.632617 0,1.72867 0.60219,2.748509 0.8,3.14304 1.69324,3.377112 3.47389,7.822175 5.27966,11.47082 2.21422,4.46062 -0.82089,4.89487 -7.955457,1.13824 z"
       id="path1"
       sodipodi:nodetypes="ssscssscsscssssssssssscssssssssssccssscsscccccsssccssssssscsscssssccccsssssssssccssssss" />
  </g>
</svg>
