<svg xmlns="http://www.w3.org/2000/svg" width="99.13" height="99.429" viewBox="0 0 99.13 99.429"><g transform="translate(12660.527 -10946.27)"><path d="M87.5,54.55V30.51a3.056,3.056,0,0,1,2.36-3.19,1.054,1.054,0,0,1,.7.02,2.639,2.639,0,0,1,1.94,2.71V54.69q0,.79.56.23l7.15-7.08a1.205,1.205,0,0,1,.76-.36q2.16-.18,2.62,1.04a3.582,3.582,0,0,1-.89,4.14L91.81,63.42a2.167,2.167,0,0,1-3.43.01q-5.52-5.4-11.14-11.03a3.279,3.279,0,0,1-.67-3.94,2.126,2.126,0,0,1,1.94-1.09,1.625,1.625,0,0,1,1.29.46l7.09,6.98Q87.5,55.41,87.5,54.55Z" transform="translate(-12701 10919)"/><path d="M67.71,73.64l-6.34-6.33a2.59,2.59,0,0,1-.07-3.59l.28-.31a1.823,1.823,0,0,1,2.98-.05L76.34,75.15a2.545,2.545,0,0,1,.08,3.5A164.921,164.921,0,0,1,64.41,90.59a1.778,1.778,0,0,1-2.74-.06l-.24-.24a2.269,2.269,0,0,1-.01-3.66l6.47-6.43q.56-.56-.23-.56l-24.82-.01a2.051,2.051,0,0,1-2.28-2.05l-.06-.54q-.29-2.73,2.46-2.73H67.43Q68.37,74.31,67.71,73.64Z" transform="translate(-12701 10919)"/><path d="M113.32,74.33l23.7.03a2.27,2.27,0,0,1,2.58,2.66l-.01.37a1.991,1.991,0,0,1-2.23,2.16l-24.92.08a.3.3,0,0,0-.289.19.327.327,0,0,0,.069.35l5.67,5.74a2.477,2.477,0,0,1,.55.84q1.2,3.13-.13,3.93a2.33,2.33,0,0,1-3.12-.38L104.22,79.42a2.926,2.926,0,0,1-.1-4.58A155.222,155.222,0,0,1,115.71,63.4a2.18,2.18,0,0,1,2.68-.15q1.28.89.04,4.14a1.121,1.121,0,0,1-.28.42l-5.28,5.44Q111.82,74.32,113.32,74.33Z" transform="translate(-12701 10919)"/><path d="M92.51,99.37q-.05,12.02.04,24.48a2.839,2.839,0,0,1-1.93,2.76,1.11,1.11,0,0,1-.79.03,3.156,3.156,0,0,1-2.35-3.28l.03-23.89q0-.83-.59-.25l-6.68,6.51a2.446,2.446,0,0,1-3.02.48,1.28,1.28,0,0,1-.63-.69,3.488,3.488,0,0,1,.83-4.06l10.9-10.93a2.15,2.15,0,0,1,3.44,0l10.59,10.57a4.417,4.417,0,0,1,1.31,4,1.452,1.452,0,0,1-.66,1.09,2.4,2.4,0,0,1-3.21-.41L93.16,99.1Q92.51,98.45,92.51,99.37Z" transform="translate(-12701 10919)"/></g></svg>