<svg xmlns="http://www.w3.org/2000/svg" width="83.997" height="109.14" viewBox="0 0 83.997 109.14"><g transform="translate(12958.358 -11039.802)"><path d="M131.68,34.31c-7.4-7.94-17.95-10.5-29.01-9.31a1.13,1.13,0,0,1-1.04-.46,1.492,1.492,0,0,1-.08-1.63,1.265,1.265,0,0,1,.96-.69q18.7-2.52,31.57,10.15a1.449,1.449,0,0,1,.09,2.21.826.826,0,0,1-.35.25A1.843,1.843,0,0,1,131.68,34.31Z" transform="translate(-13009 11018)"/><path d="M126.32,39.28c-6.38-6.58-13.68-8.18-22.59-7.46a1.15,1.15,0,0,1-.81-.26q-.82-.67-.63-1.25a1.7,1.7,0,0,1,1.45-1.23c8.7-1.34,19.02,1.34,24.89,8.38a1.165,1.165,0,0,1,.25.94,1.6,1.6,0,0,1-.59,1.04,1.5,1.5,0,0,1-1.97-.16Z" transform="translate(-13009 11018)"/><path d="M119.95,43.46c-4.18-4.32-9.42-5.36-15.07-4.67a1.108,1.108,0,0,1-1.38-1.02,1.747,1.747,0,0,1,.33-1.29,1.415,1.415,0,0,1,1-.62q10.97-1.34,18.08,6.19a1.277,1.277,0,0,1,.19,1.69.684.684,0,0,1-.33.3,2.555,2.555,0,0,1-2.82-.58Z" transform="translate(-13009 11018)"/><path d="M105.32,42.79c4.06-1.18,10.63.08,12.42,4.64a.99.99,0,0,1-.16,1.04,1.5,1.5,0,0,1-2.23.08c-2.59-2.61-5.76-4.17-9.5-2.98a1.14,1.14,0,0,1-1.46-.87l-.06-.3A1.249,1.249,0,0,1,105.32,42.79Z" transform="translate(-13009 11018)"/><path d="M118.51,62.17,93.99,53.95a.746.746,0,0,0-1.07.53l-2.08,6.21a.14.14,0,0,1-.26.03L88.35,56.7a1.1,1.1,0,0,1-.11-.83c1.37-5.06,4.84-10.19,10.9-8.02q8.4,2.99,16.51,5.44c5.53,1.67,9.63,4.44,6.87,11.04q-3.31,7.87-6.44,15.92a.343.343,0,0,1-.35.24l-4.03.05q-.18,0-.12-.17l7.19-17.62A.382.382,0,0,0,118.51,62.17Zm-11.99-8.24-2.74-.51a.38.38,0,0,0-.44.3l-.06.28a.87.87,0,0,0,.52.96,28.159,28.159,0,0,0,6.35,1.82q1.88.3.52-1.02a4.756,4.756,0,0,0-1.72-1.09.614.614,0,0,1-.44-.77,1.288,1.288,0,0,0,.03-.27q.06-.83-.7-.51a.966.966,0,0,0-.49.43A.731.731,0,0,1,106.52,53.93Z" transform="translate(-13009 11018)"/><path d="M77.06,103.51q6.67,2.18,13.69,4.51c1.12.37,1.41,1.07,1.9,2.03,1.12,2.2,3.74,3.45,6.16,3.76q1.91.24.22,1.16c-3.43,1.87-6.93,3.67-10.88,4.4-2.71.51-5.56.89-8.05,2.08a55.633,55.633,0,0,0-13.98,9.41.306.306,0,0,1-.24.08.284.284,0,0,1-.21-.13L50.75,109.3a.407.407,0,0,1,.13-.65A64.043,64.043,0,0,0,61.58,100a1.57,1.57,0,0,0,.46-1.2c-.42-6.97,2.43-12.37,6.26-17.97Q75.03,71,81.55,59.45q2.06-3.67,4.6-.54a8.262,8.262,0,0,1,.86,1.28,5.815,5.815,0,0,1,.26,5.32L78.05,87.14a1.436,1.436,0,0,0-.03,1.09,17.123,17.123,0,0,1-1.26,14.51.546.546,0,0,0-.031.459.524.524,0,0,0,.331.311Z" transform="translate(-13009 11018)"/><path d="M119.29,80l2.56-6.01a1.256,1.256,0,0,1,1.26-.82c2.35.03,8.65-.05,8.31,3.91q-.27,3.15-4.08,3.5-3.49.33-7.43.36Q118.89,80.95,119.29,80Z" transform="translate(-13009 11018)"/><rect width="18.34" height="7.82" rx="3.72" transform="translate(-12904.604 11101.334) rotate(0.1)"/><path d="M97.29,99.76a2.572,2.572,0,0,1,.58.89.473.473,0,0,1-.33.7,11.607,11.607,0,0,0-5.18,3.78.75.75,0,0,1-.88.26l-10.47-3.46a.51.51,0,0,1-.3-.69,16.261,16.261,0,0,0,.62-12.29.27.27,0,0,1,.34-.34l15.46,5q.93.3.34,1.08a4.874,4.874,0,0,0-.69,4.16,1.835,1.835,0,0,0,.51.91ZM94.23,97.7a4.118,4.118,0,1,0-4.08,3.56,3.847,3.847,0,0,0,4.08-3.56Z" transform="translate(-13009 11018)"/><rect width="16.18" height="7.6" rx="3.6" transform="translate(-12909.163 11111.641) rotate(-0.5)"/><rect width="14.1" height="7.52" rx="3.5" transform="translate(-12913.8 11121.79)"/></g></svg>