<svg xmlns="http://www.w3.org/2000/svg" width="102.495" height="85.673" viewBox="0 0 102.495 85.673"><g transform="translate(13090.035 -10983.817)"><path d="M71.23,39.78c.51,1.64,1.78,3.17,2.6,4.71a20.129,20.129,0,0,0,1.73,2.74,28.356,28.356,0,0,1,2.68,4.27.709.709,0,0,1-.01.7,40.329,40.329,0,0,1-2.73,4.25,40.926,40.926,0,0,0-6.12,11.82.705.705,0,0,1-.7.49c-6.67-.32-10.78-7.56-9.07-13.43a24.433,24.433,0,0,1,3.93-7.46,42,42,0,0,0,5.45-10.02q.78-2.06,1.57-.01Q70.92,38.8,71.23,39.78ZM65.31,63.85q2.1,2.07.75-.55c-1.86-3.62-1.33-7.85.61-11.47a57.775,57.775,0,0,0,2.64-5.65q.63-1.57-.34-.18-2.73,3.94-5.2,8.06C61.61,57.65,62.42,60.99,65.31,63.85Z" transform="translate(-13127 10947)" fill="#060505"/><path d="M88.23,37.47q.49-1.23,1.16-.08c1.73,3.04,2.81,6.52,4.43,9.32q3.6,6.23,8.17,12.84a28.8,28.8,0,0,1,2.15,3.63,25.572,25.572,0,0,1,2.34,5.38q1.82,7.58-.75,13.08c-6.08,13.02-23.29,15.2-31.72,3.01-3.53-5.1-4.79-13.41-1.41-19.32.88-1.54,1.46-3.19,2.47-4.65q4.18-6,7.54-11.62A81.356,81.356,0,0,0,88.23,37.47ZM81.75,86.7A19.872,19.872,0,0,1,77.7,71.01a28.59,28.59,0,0,1,1.91-5.86,31.6,31.6,0,0,1,1.97-4.17,116.7,116.7,0,0,0,6.54-13.74.028.028,0,0,0-.02-.04l-.27-.13a.2.2,0,0,0-.29.1,132.758,132.758,0,0,1-9.18,14.68,12.935,12.935,0,0,0-1.35,2.36c-.96,2.21-2.22,3.94-2.71,6.38a15.859,15.859,0,0,0,3.47,13.39,10.53,10.53,0,0,0,3.73,3.04Q82.33,87.42,81.75,86.7Zm21.84-15.66a26.309,26.309,0,0,0-4.42-9.42.206.206,0,0,0-.32-.05h-.01a.178.178,0,0,0-.06.27,26.692,26.692,0,0,1,3.68,11.67,34.057,34.057,0,0,1-.91,7.75q-.19,1.01.41.18C103.89,78.79,104.19,73.89,103.59,71.04Z" transform="translate(-13127 10947)" fill="#060505"/><path d="M107.17,46.07l-5.65,8.7q-.21.31-.35-.03a6.926,6.926,0,0,0-1.56-2.34.536.536,0,0,1-.11-.69,30.445,30.445,0,0,1,2.84-4.57c1.38-1.85,2.18-3.76,3.4-5.62.93-1.43,1.13-2.96,1.93-4.4q.32-.56.68-.02c1.44,2.13,1.78,4.58,3.28,6.75q2.31,3.34,4.37,6.62a16.036,16.036,0,0,1,2.72,7.37c.3,5.25-3.77,10.59-9.47,10.92a.73.73,0,0,1-.77-.48c-.95-2.3-1.48-4.94-3.03-6.97a18.887,18.887,0,0,1-1.91-3.1,1.917,1.917,0,0,1-.2-1.05c.39-4.25,3.04-7.03,4.12-10.97Q107.73,45.2,107.17,46.07Z" transform="translate(-13127 10947)" fill="#060505"/><path d="M98.92,118a.487.487,0,0,0,.37.16q19.92-.01,39.89,0a.247.247,0,0,1,.28.29l-.02,3.82q0,.22-.21.22H38.74a.26.26,0,0,1-.26-.26l-.03-3.78a.28.28,0,0,1,.28-.29q19.47,0,38.64.02a2.983,2.983,0,0,0,.91-.14.38.38,0,0,0,.13-.65L49.2,92.02a.676.676,0,0,0-1.11.11l-1.07,1.36q-.36.47-.69-.02L37.21,79.89q-.64-.95.39-.45l14.79,7.2a.422.422,0,0,1,.24.61A2.581,2.581,0,0,1,51,88.77a.33.33,0,0,0-.11.56l27.78,24.25a.948.948,0,0,0,1.35.03l6-4.87q.67-.55.02-1.1Q76.8,99.76,67.85,92.21q-.57-.48-1.95,1.09-.49.56-.91-.06l-8.8-12.92q-.98-1.43.58-.67l14.24,6.94a.432.432,0,0,1,.2.71l-.98,1.54A.9.9,0,0,0,70.4,90l18.14,15.79a.585.585,0,0,0,.83.01l27.34-22.67a1.053,1.053,0,0,1,1.63.11l.45.5a1.037,1.037,0,0,1-.12,1.7L91.93,107.71a.652.652,0,0,0,0,1.15l5.63,4.76a.92.92,0,0,0,1.18,0l36.58-30.3a1.352,1.352,0,0,1,2.18.23.906.906,0,0,1,.15.3,1.905,1.905,0,0,1-.62,2q-19.17,15.74-38.08,31.67a.33.33,0,0,0-.03.48Zm-18.51-.6a.35.35,0,0,0,.22.62l16.32.06a.35.35,0,0,0,.23-.62l-8.13-7.01a.35.35,0,0,0-.46-.01Z" transform="translate(-13127 10947)" fill="#060505"/></g></svg>